<svg xmlns="http://www.w3.org/2000/svg" version="1.1" style="position: absolute; width: 571px; height: 512px; top: 0.15625px;"><desc>JavaScript chart by amCharts 3.14.1</desc><g><path cs="100,100" d="M0.5,0.5 L570.5,0.5 L570.5,511.5 L0.5,511.5 Z" fill="#000000" stroke="#000000" fill-opacity="0" stroke-width="1" stroke-opacity="0" class="amcharts-bg"/><path cs="100,100" d="M0.5,0.5 L469.5,0.5 L469.5,457.5 L0.5,457.5 L0.5,0.5 Z" fill="#FFFFFF" stroke="#000000" fill-opacity="0" stroke-width="1" stroke-opacity="0" class="amcharts-plot-area" transform="translate(81,20)"/></g><g><g class="amcharts-category-axis" transform="translate(81,20)"><g><path cs="100,100" d="M0.5,0.5 L0.5,5.5" fill="none" stroke-width="1" stroke-opacity="1" stroke="#FFFFFF" transform="translate(0,457)" class="amcharts-axis-tick"/><path cs="100,100" d="M0.5,457.5 L0.5,457.5 L0.5,0.5" fill="none" stroke-width="1" stroke-dasharray="3" stroke-opacity="0.5" stroke="#FFFFFF" class="amcharts-axis-grid"/></g><g><path cs="100,100" d="M95.5,0.5 L95.5,5.5" fill="none" stroke-width="1" stroke-opacity="1" stroke="#FFFFFF" transform="translate(0,457)" class="amcharts-axis-tick"/><path cs="100,100" d="M95.5,457.5 L95.5,457.5 L95.5,0.5" fill="none" stroke-width="1" stroke-dasharray="3" stroke-opacity="0.5" stroke="#FFFFFF" class="amcharts-axis-grid"/></g><g><path cs="100,100" d="M189.5,0.5 L189.5,5.5" fill="none" stroke-width="1" stroke-opacity="1" stroke="#FFFFFF" transform="translate(0,457)" class="amcharts-axis-tick"/><path cs="100,100" d="M189.5,457.5 L189.5,457.5 L189.5,0.5" fill="none" stroke-width="1" stroke-dasharray="3" stroke-opacity="0.5" stroke="#FFFFFF" class="amcharts-axis-grid"/></g><g><path cs="100,100" d="M284.5,0.5 L284.5,5.5" fill="none" stroke-width="1" stroke-opacity="1" stroke="#FFFFFF" transform="translate(0,457)" class="amcharts-axis-tick"/><path cs="100,100" d="M284.5,457.5 L284.5,457.5 L284.5,0.5" fill="none" stroke-width="1" stroke-dasharray="3" stroke-opacity="0.5" stroke="#FFFFFF" class="amcharts-axis-grid"/></g><g><path cs="100,100" d="M379.5,0.5 L379.5,5.5" fill="none" stroke-width="1" stroke-opacity="1" stroke="#FFFFFF" transform="translate(0,457)" class="amcharts-axis-tick"/><path cs="100,100" d="M379.5,457.5 L379.5,457.5 L379.5,0.5" fill="none" stroke-width="1" stroke-dasharray="3" stroke-opacity="0.5" stroke="#FFFFFF" class="amcharts-axis-grid"/></g></g><g class="amcharts-value-axis value-axis-v1" transform="translate(81,20)" visibility="visible"><g><path cs="100,100" d="M0.5,457.5 L5.5,457.5" fill="none" stroke-width="1" stroke-opacity="1" stroke="#FFFFFF" transform="translate(-6,0)" class="amcharts-axis-tick"/><path cs="100,100" d="M0.5,457.5 L0.5,457.5 L469.5,457.5" fill="none" stroke-width="1" stroke-dasharray="3" stroke-opacity="0.5" stroke="#FFFFFF" class="amcharts-axis-grid"/></g><g><path cs="100,100" d="M0.5,400.5 L5.5,400.5" fill="none" stroke-width="1" stroke-opacity="1" stroke="#FFFFFF" transform="translate(-6,0)" class="amcharts-axis-tick"/><path cs="100,100" d="M0.5,400.5 L0.5,400.5 L469.5,400.5" fill="none" stroke-width="1" stroke-dasharray="3" stroke-opacity="0.5" stroke="#FFFFFF" class="amcharts-axis-grid"/></g><g><path cs="100,100" d="M0.5,343.5 L5.5,343.5" fill="none" stroke-width="1" stroke-opacity="1" stroke="#FFFFFF" transform="translate(-6,0)" class="amcharts-axis-tick"/><path cs="100,100" d="M0.5,343.5 L0.5,343.5 L469.5,343.5" fill="none" stroke-width="1" stroke-dasharray="3" stroke-opacity="0.5" stroke="#FFFFFF" class="amcharts-axis-grid"/></g><g><path cs="100,100" d="M0.5,286.5 L5.5,286.5" fill="none" stroke-width="1" stroke-opacity="1" stroke="#FFFFFF" transform="translate(-6,0)" class="amcharts-axis-tick"/><path cs="100,100" d="M0.5,286.5 L0.5,286.5 L469.5,286.5" fill="none" stroke-width="1" stroke-dasharray="3" stroke-opacity="0.5" stroke="#FFFFFF" class="amcharts-axis-grid"/></g><g><path cs="100,100" d="M0.5,229.5 L5.5,229.5" fill="none" stroke-width="1" stroke-opacity="1" stroke="#FFFFFF" transform="translate(-6,0)" class="amcharts-axis-tick"/><path cs="100,100" d="M0.5,229.5 L0.5,229.5 L469.5,229.5" fill="none" stroke-width="1" stroke-dasharray="3" stroke-opacity="0.5" stroke="#FFFFFF" class="amcharts-axis-grid"/></g><g><path cs="100,100" d="M0.5,171.5 L5.5,171.5" fill="none" stroke-width="1" stroke-opacity="1" stroke="#FFFFFF" transform="translate(-6,0)" class="amcharts-axis-tick"/><path cs="100,100" d="M0.5,171.5 L0.5,171.5 L469.5,171.5" fill="none" stroke-width="1" stroke-dasharray="3" stroke-opacity="0.5" stroke="#FFFFFF" class="amcharts-axis-grid"/></g><g><path cs="100,100" d="M0.5,114.5 L5.5,114.5" fill="none" stroke-width="1" stroke-opacity="1" stroke="#FFFFFF" transform="translate(-6,0)" class="amcharts-axis-tick"/><path cs="100,100" d="M0.5,114.5 L0.5,114.5 L469.5,114.5" fill="none" stroke-width="1" stroke-dasharray="3" stroke-opacity="0.5" stroke="#FFFFFF" class="amcharts-axis-grid"/></g><g><path cs="100,100" d="M0.5,57.5 L5.5,57.5" fill="none" stroke-width="1" stroke-opacity="1" stroke="#FFFFFF" transform="translate(-6,0)" class="amcharts-axis-tick"/><path cs="100,100" d="M0.5,57.5 L0.5,57.5 L469.5,57.5" fill="none" stroke-width="1" stroke-dasharray="3" stroke-opacity="0.5" stroke="#FFFFFF" class="amcharts-axis-grid"/></g><g><path cs="100,100" d="M0.5,0.5 L5.5,0.5" fill="none" stroke-width="1" stroke-opacity="1" stroke="#FFFFFF" transform="translate(-6,0)" class="amcharts-axis-tick"/><path cs="100,100" d="M0.5,0.5 L0.5,0.5 L469.5,0.5" fill="none" stroke-width="1" stroke-dasharray="3" stroke-opacity="0.5" stroke="#FFFFFF" class="amcharts-axis-grid"/></g></g></g><g/><g/><g/><g/><g><g transform="translate(81,20)" class="amcharts-graph-line amcharts-graph-g1"><g/><g/><g clip-path="url(#AmChartsEl-13)"><path cs="100,100" d="M0.5,229.5 L6.5,229.5 L11.5,229.5 L16.5,229.5 L21.5,229.5 L27.5,229.5 L32.5,229.5 L37.5,231.5 L48.5,245.5 L53.5,239.5 L63.5,223.5 L69.5,229.5 L79.5,238.5 L90.5,248.5 L121.5,260.5 L132.5,275.5 L142.5,281.5 L153.5,293.5 L163.5,298.5 L174.5,315.5 L184.5,275.5 L195.5,287.5 L206.5,305.5 L216.5,317.5 L227.5,289.5 L237.5,308.5 L248.5,325.5 L258.5,331.5 L311.5,336.5 L321.5,351.5 L332.5,369.5 L342.5,361.5 L353.5,372.5 L363.5,387.5 L374.5,394.5 L385.5,395.5 L395.5,404.5 L416.5,410.5 L453.5,410.5 M0,0 L0,0" fill="none" stroke-width="3" stroke-opacity="1" stroke="#86b81b" class="amcharts-graph-stroke"/></g><clipPath id="AmChartsEl-13"><rect x="0" y="0" width="471" height="459" rx="0" ry="0" stroke-width="0"/></clipPath></g></g><g clip-path="url(#AmChartsEl-12)"/><g><path cs="100,100" d="M0.5,229.5 L469.5,229.5 L469.5,229.5" fill="none" stroke-width="1" stroke-dasharray="3" stroke-opacity="1" stroke="#FFFFFF" transform="translate(81,20)" class="amcharts-axis-zero-grid-v1 amcharts-axis-zero-grid"/><g class="amcharts-category-axis"><path cs="100,100" d="M0.5,0.5 L469.5,0.5" fill="none" stroke-width="1" stroke-opacity="1" stroke="#FFFFFF" transform="translate(81,477)" class="amcharts-axis-line"/></g><g class="amcharts-value-axis value-axis-v1"><path cs="100,100" d="M0.5,0.5 L0.5,457.5" fill="none" stroke-width="1" stroke-opacity="1" stroke="#FFFFFF" transform="translate(81,20)" class="amcharts-axis-line" visibility="visible"/></g></g><g><g transform="translate(81,20)" visibility="hidden"><path cs="100,100" d="M0.5,0.5 L0.5,0.5 L0.5,457.5" fill="none" stroke-width="1" stroke-opacity="1" stroke="#FFFFFF" class="amcharts-cursor-line" visibility="hidden"/><path cs="100,100" d="M0.5,0.5 L469.5,0.5 L469.5,0.5" fill="none" stroke-width="1" stroke-opacity="1" stroke="#FFFFFF" class="amcharts-cursor-value-line" visibility="hidden"/></g></g><g/><g><g transform="translate(81,20)" class="amcharts-graph-line amcharts-graph-g1"><circle r="4" cx="0" cy="0" fill="#86b81b" stroke="#86b81b" fill-opacity="0" stroke-width="2" stroke-opacity="0" transform="translate(0,229)" class="amcharts-graph-bullet"/><circle r="4" cx="0" cy="0" fill="#86b81b" stroke="#86b81b" fill-opacity="0" stroke-width="2" stroke-opacity="0" transform="translate(6,229)" class="amcharts-graph-bullet"/><circle r="4" cx="0" cy="0" fill="#86b81b" stroke="#86b81b" fill-opacity="0" stroke-width="2" stroke-opacity="0" transform="translate(11,229)" class="amcharts-graph-bullet"/><circle r="4" cx="0" cy="0" fill="#86b81b" stroke="#86b81b" fill-opacity="0" stroke-width="2" stroke-opacity="0" transform="translate(16,229)" class="amcharts-graph-bullet"/><circle r="4" cx="0" cy="0" fill="#86b81b" stroke="#86b81b" fill-opacity="0" stroke-width="2" stroke-opacity="0" transform="translate(21,229)" class="amcharts-graph-bullet"/><circle r="4" cx="0" cy="0" fill="#86b81b" stroke="#86b81b" fill-opacity="0" stroke-width="2" stroke-opacity="0" transform="translate(27,229)" class="amcharts-graph-bullet"/><circle r="4" cx="0" cy="0" fill="#86b81b" stroke="#86b81b" fill-opacity="0" stroke-width="2" stroke-opacity="0" transform="translate(32,229)" class="amcharts-graph-bullet"/><circle r="4" cx="0" cy="0" fill="#86b81b" stroke="#86b81b" fill-opacity="0" stroke-width="2" stroke-opacity="0" transform="translate(37,231)" class="amcharts-graph-bullet"/><circle r="4" cx="0" cy="0" fill="#86b81b" stroke="#86b81b" fill-opacity="0" stroke-width="2" stroke-opacity="0" transform="translate(48,245)" class="amcharts-graph-bullet"/><circle r="4" cx="0" cy="0" fill="#86b81b" stroke="#86b81b" fill-opacity="0" stroke-width="2" stroke-opacity="0" transform="translate(53,239)" class="amcharts-graph-bullet"/><circle r="4" cx="0" cy="0" fill="#86b81b" stroke="#86b81b" fill-opacity="0" stroke-width="2" stroke-opacity="0" transform="translate(63,223)" class="amcharts-graph-bullet"/><circle r="4" cx="0" cy="0" fill="#86b81b" stroke="#86b81b" fill-opacity="0" stroke-width="2" stroke-opacity="0" transform="translate(69,229)" class="amcharts-graph-bullet"/><circle r="4" cx="0" cy="0" fill="#86b81b" stroke="#86b81b" fill-opacity="0" stroke-width="2" stroke-opacity="0" transform="translate(79,238)" class="amcharts-graph-bullet"/><circle r="4" cx="0" cy="0" fill="#86b81b" stroke="#86b81b" fill-opacity="0" stroke-width="2" stroke-opacity="0" transform="translate(90,248)" class="amcharts-graph-bullet"/><circle r="4" cx="0" cy="0" fill="#86b81b" stroke="#86b81b" fill-opacity="0" stroke-width="2" stroke-opacity="0" transform="translate(121,260)" class="amcharts-graph-bullet"/><circle r="4" cx="0" cy="0" fill="#86b81b" stroke="#86b81b" fill-opacity="0" stroke-width="2" stroke-opacity="0" transform="translate(132,275)" class="amcharts-graph-bullet"/><circle r="4" cx="0" cy="0" fill="#86b81b" stroke="#86b81b" fill-opacity="0" stroke-width="2" stroke-opacity="0" transform="translate(142,281)" class="amcharts-graph-bullet"/><circle r="4" cx="0" cy="0" fill="#86b81b" stroke="#86b81b" fill-opacity="0" stroke-width="2" stroke-opacity="0" transform="translate(153,293)" class="amcharts-graph-bullet"/><circle r="4" cx="0" cy="0" fill="#86b81b" stroke="#86b81b" fill-opacity="0" stroke-width="2" stroke-opacity="0" transform="translate(163,298)" class="amcharts-graph-bullet"/><circle r="4" cx="0" cy="0" fill="#86b81b" stroke="#86b81b" fill-opacity="0" stroke-width="2" stroke-opacity="0" transform="translate(174,315)" class="amcharts-graph-bullet"/><circle r="4" cx="0" cy="0" fill="#86b81b" stroke="#86b81b" fill-opacity="0" stroke-width="2" stroke-opacity="0" transform="translate(184,275)" class="amcharts-graph-bullet"/><circle r="4" cx="0" cy="0" fill="#86b81b" stroke="#86b81b" fill-opacity="0" stroke-width="2" stroke-opacity="0" transform="translate(195,287)" class="amcharts-graph-bullet"/><circle r="4" cx="0" cy="0" fill="#86b81b" stroke="#86b81b" fill-opacity="0" stroke-width="2" stroke-opacity="0" transform="translate(206,305)" class="amcharts-graph-bullet"/><circle r="4" cx="0" cy="0" fill="#86b81b" stroke="#86b81b" fill-opacity="0" stroke-width="2" stroke-opacity="0" transform="translate(216,317)" class="amcharts-graph-bullet"/><circle r="4" cx="0" cy="0" fill="#86b81b" stroke="#86b81b" fill-opacity="0" stroke-width="2" stroke-opacity="0" transform="translate(227,289)" class="amcharts-graph-bullet"/><circle r="4" cx="0" cy="0" fill="#86b81b" stroke="#86b81b" fill-opacity="0" stroke-width="2" stroke-opacity="0" transform="translate(237,308)" class="amcharts-graph-bullet"/><circle r="4" cx="0" cy="0" fill="#86b81b" stroke="#86b81b" fill-opacity="0" stroke-width="2" stroke-opacity="0" transform="translate(248,325)" class="amcharts-graph-bullet"/><circle r="4" cx="0" cy="0" fill="#86b81b" stroke="#86b81b" fill-opacity="0" stroke-width="2" stroke-opacity="0" transform="translate(258,331)" class="amcharts-graph-bullet"/><circle r="4" cx="0" cy="0" fill="#86b81b" stroke="#86b81b" fill-opacity="0" stroke-width="2" stroke-opacity="0" transform="translate(311,336)" class="amcharts-graph-bullet"/><circle r="4" cx="0" cy="0" fill="#86b81b" stroke="#86b81b" fill-opacity="0" stroke-width="2" stroke-opacity="0" transform="translate(321,351)" class="amcharts-graph-bullet"/><circle r="4" cx="0" cy="0" fill="#86b81b" stroke="#86b81b" fill-opacity="0" stroke-width="2" stroke-opacity="0" transform="translate(332,369)" class="amcharts-graph-bullet"/><circle r="4" cx="0" cy="0" fill="#86b81b" stroke="#86b81b" fill-opacity="0" stroke-width="2" stroke-opacity="0" transform="translate(342,361)" class="amcharts-graph-bullet"/><circle r="4" cx="0" cy="0" fill="#86b81b" stroke="#86b81b" fill-opacity="0" stroke-width="2" stroke-opacity="0" transform="translate(353,372)" class="amcharts-graph-bullet"/><circle r="4" cx="0" cy="0" fill="#86b81b" stroke="#86b81b" fill-opacity="0" stroke-width="2" stroke-opacity="0" transform="translate(363,387)" class="amcharts-graph-bullet"/><circle r="4" cx="0" cy="0" fill="#86b81b" stroke="#86b81b" fill-opacity="0" stroke-width="2" stroke-opacity="0" transform="translate(374,394)" class="amcharts-graph-bullet"/><circle r="4" cx="0" cy="0" fill="#86b81b" stroke="#86b81b" fill-opacity="0" stroke-width="2" stroke-opacity="0" transform="translate(385,395)" class="amcharts-graph-bullet"/><circle r="4" cx="0" cy="0" fill="#86b81b" stroke="#86b81b" fill-opacity="0" stroke-width="2" stroke-opacity="0" transform="translate(395,404)" class="amcharts-graph-bullet"/><circle r="4" cx="0" cy="0" fill="#86b81b" stroke="#86b81b" fill-opacity="0" stroke-width="2" stroke-opacity="0" transform="translate(416,410)" class="amcharts-graph-bullet"/><circle r="4" cx="0" cy="0" fill="transparent" stroke="transparent" fill-opacity="0" stroke-width="2" stroke-opacity="0" transform="translate(453,410)" class="amcharts-graph-bullet"/></g></g><g><g class="amcharts-category-axis" transform="translate(81,20)"><text y="8" fill="#e7e7e7" font-family="monospace" font-size="15.348225000000001" opacity="1" text-anchor="start" transform="translate(3,472)" class="amcharts-axis-label"><tspan y="8" x="0" style="font-size: 15.3482px;">09:00</tspan></text><text y="8" fill="#e7e7e7" font-family="monospace" font-size="15.348225000000001" opacity="1" text-anchor="start" transform="translate(98,472)" class="amcharts-axis-label"><tspan y="8" x="0" style="font-size: 15.3482px;">12:00</tspan></text><text y="8" fill="#e7e7e7" font-family="monospace" font-size="15.348225000000001" opacity="1" text-anchor="start" transform="translate(192,472)" class="amcharts-axis-label"><tspan y="8" x="0" style="font-size: 15.3482px;">15:00</tspan></text><text y="8" fill="#e7e7e7" font-family="monospace" font-size="15.348225000000001" opacity="1" text-anchor="start" transform="translate(287,472)" class="amcharts-axis-label"><tspan y="8" x="0" style="font-size: 15.3482px;">18:00</tspan></text><text y="8" fill="#e7e7e7" font-family="monospace" font-size="15.348225000000001" opacity="1" text-anchor="start" transform="translate(382,472)" class="amcharts-axis-label"><tspan y="8" x="0" style="font-size: 15.3482px;">21:00</tspan></text></g><g class="amcharts-value-axis value-axis-v1" transform="translate(81,20)" visibility="visible"><text y="8" fill="#e7e7e7" font-family="monospace" font-size="15.348225000000001" opacity="1" text-anchor="end" transform="translate(-12,455)" class="amcharts-axis-label"><tspan y="8" x="0" style="font-size: 15.3482px;">-20,000</tspan></text><text y="8" fill="#e7e7e7" font-family="monospace" font-size="15.348225000000001" opacity="1" text-anchor="end" transform="translate(-12,398)" class="amcharts-axis-label"><tspan y="8" x="0" style="font-size: 15.3482px;">-15,000</tspan></text><text y="8" fill="#e7e7e7" font-family="monospace" font-size="15.348225000000001" opacity="1" text-anchor="end" transform="translate(-12,341)" class="amcharts-axis-label"><tspan y="8" x="0" style="font-size: 15.3482px;">-10,000</tspan></text><text y="8" fill="#e7e7e7" font-family="monospace" font-size="15.348225000000001" opacity="1" text-anchor="end" transform="translate(-12,284)" class="amcharts-axis-label"><tspan y="8" x="0" style="font-size: 15.3482px;"> -5,000</tspan></text><text y="8" fill="#e7e7e7" font-family="monospace" font-size="15.348225000000001" opacity="1" text-anchor="end" transform="translate(-12,227)" class="amcharts-axis-label"><tspan y="8" x="0" style="font-size: 15.3482px;">      0</tspan></text><text y="8" fill="#e7e7e7" font-family="monospace" font-size="15.348225000000001" opacity="1" text-anchor="end" transform="translate(-12,169)" class="amcharts-axis-label"><tspan y="8" x="0" style="font-size: 15.3482px;">  5,000</tspan></text><text y="8" fill="#e7e7e7" font-family="monospace" font-size="15.348225000000001" opacity="1" text-anchor="end" transform="translate(-12,112)" class="amcharts-axis-label"><tspan y="8" x="0" style="font-size: 15.3482px;"> 10,000</tspan></text><text y="8" fill="#e7e7e7" font-family="monospace" font-size="15.348225000000001" opacity="1" text-anchor="end" transform="translate(-12,55)" class="amcharts-axis-label"><tspan y="8" x="0" style="font-size: 15.3482px;"> 15,000</tspan></text><text y="8" fill="#e7e7e7" font-family="monospace" font-size="15.348225000000001" opacity="1" text-anchor="end" transform="translate(-12,-2)" class="amcharts-axis-label"><tspan y="8" x="0" style="font-size: 15.3482px;"> 20,000</tspan></text></g></g><g><g/></g><g/><g/><g/><clipPath id="AmChartsEl-12"><rect x="81" y="20" width="469" height="457" rx="0" ry="0" stroke-width="0"/></clipPath></svg>