<svg xmlns="http://www.w3.org/2000/svg" version="1.1" style="position: absolute; width: 571px; height: 512px; top: 0.265625px;"><desc>JavaScript chart by amCharts 3.14.1</desc><g><path cs="100,100" d="M0.5,0.5 L570.5,0.5 L570.5,511.5 L0.5,511.5 Z" fill="#000000" stroke="#000000" fill-opacity="0" stroke-width="1" stroke-opacity="0" class="amcharts-bg"/><path cs="100,100" d="M0.5,0.5 L469.5,0.5 L469.5,457.5 L0.5,457.5 L0.5,0.5 Z" fill="#FFFFFF" stroke="#000000" fill-opacity="0" stroke-width="1" stroke-opacity="0" class="amcharts-plot-area" transform="translate(81,20)"/></g><g><g class="amcharts-category-axis" transform="translate(81,20)"><g><path cs="100,100" d="M0.5,0.5 L0.5,5.5" fill="none" stroke-width="1" stroke-opacity="1" stroke="#FFFFFF" transform="translate(0,457)" class="amcharts-axis-tick"/><path cs="100,100" d="M0.5,457.5 L0.5,457.5 L0.5,0.5" fill="none" stroke-width="1" stroke-dasharray="3" stroke-opacity="0.5" stroke="#FFFFFF" class="amcharts-axis-grid"/></g><g><path cs="100,100" d="M95.5,0.5 L95.5,5.5" fill="none" stroke-width="1" stroke-opacity="1" stroke="#FFFFFF" transform="translate(0,457)" class="amcharts-axis-tick"/><path cs="100,100" d="M95.5,457.5 L95.5,457.5 L95.5,0.5" fill="none" stroke-width="1" stroke-dasharray="3" stroke-opacity="0.5" stroke="#FFFFFF" class="amcharts-axis-grid"/></g><g><path cs="100,100" d="M189.5,0.5 L189.5,5.5" fill="none" stroke-width="1" stroke-opacity="1" stroke="#FFFFFF" transform="translate(0,457)" class="amcharts-axis-tick"/><path cs="100,100" d="M189.5,457.5 L189.5,457.5 L189.5,0.5" fill="none" stroke-width="1" stroke-dasharray="3" stroke-opacity="0.5" stroke="#FFFFFF" class="amcharts-axis-grid"/></g><g><path cs="100,100" d="M284.5,0.5 L284.5,5.5" fill="none" stroke-width="1" stroke-opacity="1" stroke="#FFFFFF" transform="translate(0,457)" class="amcharts-axis-tick"/><path cs="100,100" d="M284.5,457.5 L284.5,457.5 L284.5,0.5" fill="none" stroke-width="1" stroke-dasharray="3" stroke-opacity="0.5" stroke="#FFFFFF" class="amcharts-axis-grid"/></g><g><path cs="100,100" d="M379.5,0.5 L379.5,5.5" fill="none" stroke-width="1" stroke-opacity="1" stroke="#FFFFFF" transform="translate(0,457)" class="amcharts-axis-tick"/><path cs="100,100" d="M379.5,457.5 L379.5,457.5 L379.5,0.5" fill="none" stroke-width="1" stroke-dasharray="3" stroke-opacity="0.5" stroke="#FFFFFF" class="amcharts-axis-grid"/></g></g><g class="amcharts-value-axis value-axis-v1" transform="translate(81,20)" visibility="visible"><g><path cs="100,100" d="M0.5,457.5 L5.5,457.5" fill="none" stroke-width="1" stroke-opacity="1" stroke="#FFFFFF" transform="translate(-6,0)" class="amcharts-axis-tick"/><path cs="100,100" d="M0.5,457.5 L0.5,457.5 L469.5,457.5" fill="none" stroke-width="1" stroke-dasharray="3" stroke-opacity="0.5" stroke="#FFFFFF" class="amcharts-axis-grid"/></g><g><path cs="100,100" d="M0.5,411.5 L5.5,411.5" fill="none" stroke-width="1" stroke-opacity="1" stroke="#FFFFFF" transform="translate(-6,0)" class="amcharts-axis-tick"/><path cs="100,100" d="M0.5,411.5 L0.5,411.5 L469.5,411.5" fill="none" stroke-width="1" stroke-dasharray="3" stroke-opacity="0.5" stroke="#FFFFFF" class="amcharts-axis-grid"/></g><g><path cs="100,100" d="M0.5,366.5 L5.5,366.5" fill="none" stroke-width="1" stroke-opacity="1" stroke="#FFFFFF" transform="translate(-6,0)" class="amcharts-axis-tick"/><path cs="100,100" d="M0.5,366.5 L0.5,366.5 L469.5,366.5" fill="none" stroke-width="1" stroke-dasharray="3" stroke-opacity="0.5" stroke="#FFFFFF" class="amcharts-axis-grid"/></g><g><path cs="100,100" d="M0.5,320.5 L5.5,320.5" fill="none" stroke-width="1" stroke-opacity="1" stroke="#FFFFFF" transform="translate(-6,0)" class="amcharts-axis-tick"/><path cs="100,100" d="M0.5,320.5 L0.5,320.5 L469.5,320.5" fill="none" stroke-width="1" stroke-dasharray="3" stroke-opacity="0.5" stroke="#FFFFFF" class="amcharts-axis-grid"/></g><g><path cs="100,100" d="M0.5,274.5 L5.5,274.5" fill="none" stroke-width="1" stroke-opacity="1" stroke="#FFFFFF" transform="translate(-6,0)" class="amcharts-axis-tick"/><path cs="100,100" d="M0.5,274.5 L0.5,274.5 L469.5,274.5" fill="none" stroke-width="1" stroke-dasharray="3" stroke-opacity="0.5" stroke="#FFFFFF" class="amcharts-axis-grid"/></g><g><path cs="100,100" d="M0.5,229.5 L5.5,229.5" fill="none" stroke-width="1" stroke-opacity="1" stroke="#FFFFFF" transform="translate(-6,0)" class="amcharts-axis-tick"/><path cs="100,100" d="M0.5,229.5 L0.5,229.5 L469.5,229.5" fill="none" stroke-width="1" stroke-dasharray="3" stroke-opacity="0.5" stroke="#FFFFFF" class="amcharts-axis-grid"/></g><g><path cs="100,100" d="M0.5,183.5 L5.5,183.5" fill="none" stroke-width="1" stroke-opacity="1" stroke="#FFFFFF" transform="translate(-6,0)" class="amcharts-axis-tick"/><path cs="100,100" d="M0.5,183.5 L0.5,183.5 L469.5,183.5" fill="none" stroke-width="1" stroke-dasharray="3" stroke-opacity="0.5" stroke="#FFFFFF" class="amcharts-axis-grid"/></g><g><path cs="100,100" d="M0.5,137.5 L5.5,137.5" fill="none" stroke-width="1" stroke-opacity="1" stroke="#FFFFFF" transform="translate(-6,0)" class="amcharts-axis-tick"/><path cs="100,100" d="M0.5,137.5 L0.5,137.5 L469.5,137.5" fill="none" stroke-width="1" stroke-dasharray="3" stroke-opacity="0.5" stroke="#FFFFFF" class="amcharts-axis-grid"/></g><g><path cs="100,100" d="M0.5,91.5 L5.5,91.5" fill="none" stroke-width="1" stroke-opacity="1" stroke="#FFFFFF" transform="translate(-6,0)" class="amcharts-axis-tick"/><path cs="100,100" d="M0.5,91.5 L0.5,91.5 L469.5,91.5" fill="none" stroke-width="1" stroke-dasharray="3" stroke-opacity="0.5" stroke="#FFFFFF" class="amcharts-axis-grid"/></g><g><path cs="100,100" d="M0.5,46.5 L5.5,46.5" fill="none" stroke-width="1" stroke-opacity="1" stroke="#FFFFFF" transform="translate(-6,0)" class="amcharts-axis-tick"/><path cs="100,100" d="M0.5,46.5 L0.5,46.5 L469.5,46.5" fill="none" stroke-width="1" stroke-dasharray="3" stroke-opacity="0.5" stroke="#FFFFFF" class="amcharts-axis-grid"/></g><g><path cs="100,100" d="M0.5,0.5 L5.5,0.5" fill="none" stroke-width="1" stroke-opacity="1" stroke="#FFFFFF" transform="translate(-6,0)" class="amcharts-axis-tick"/><path cs="100,100" d="M0.5,0.5 L0.5,0.5 L469.5,0.5" fill="none" stroke-width="1" stroke-dasharray="3" stroke-opacity="0.5" stroke="#FFFFFF" class="amcharts-axis-grid"/></g></g></g><g/><g/><g/><g/><g><g transform="translate(81,20)" class="amcharts-graph-line amcharts-graph-g1"><g/><g/><g clip-path="url(#AmChartsEl-17)"><path cs="100,100" d="M0.5,229.5 L6.5,229.5 L11.5,229.5 L16.5,229.5 L21.5,229.5 L27.5,229.5 L32.5,229.5 L37.5,229.5 L42.5,229.5 L48.5,229.5 L53.5,229.5 L58.5,229.5 L63.5,229.5 L69.5,229.5 L74.5,229.5 L79.5,229.5 L84.5,229.5 L90.5,229.5 L95.5,229.5 L100.5,229.5 L106.5,229.5 L111.5,229.5 L116.5,229.5 L121.5,229.5 L127.5,229.5 L132.5,229.5 L137.5,229.5 L142.5,229.5 L148.5,229.5 L153.5,229.5 L158.5,229.5 L163.5,229.5 L169.5,229.5 L174.5,229.5 L179.5,229.5 L184.5,229.5 L190.5,229.5 L195.5,229.5 L200.5,229.5 L206.5,229.5 L211.5,229.5 L216.5,229.5 L221.5,229.5 L227.5,229.5 L232.5,229.5 L237.5,229.5 L242.5,229.5 L248.5,229.5 L253.5,229.5 L258.5,229.5 L263.5,229.5 L269.5,229.5 L274.5,229.5 L279.5,229.5 L285.5,229.5 L290.5,229.5 L295.5,229.5 L300.5,229.5 L306.5,229.5 L311.5,229.5 L316.5,229.5 L321.5,229.5 L327.5,229.5 L332.5,229.5 L337.5,229.5 L342.5,229.5 L348.5,229.5 L353.5,229.5 L358.5,229.5 L363.5,229.5 L369.5,229.5 L374.5,229.5 L379.5,229.5 L385.5,229.5 L390.5,229.5 L395.5,229.5 L400.5,229.5 L406.5,229.5 L411.5,229.5 L416.5,229.5 L421.5,229.5 L427.5,229.5 L432.5,229.5 L437.5,229.5 L442.5,229.5 L448.5,229.5 L453.5,229.5 M0,0 L0,0" fill="none" stroke-width="3" stroke-opacity="1" stroke="#86b81b" class="amcharts-graph-stroke"/></g><clipPath id="AmChartsEl-17"><rect x="0" y="0" width="471" height="459" rx="0" ry="0" stroke-width="0"/></clipPath><g/><g clip-path="url(#AmChartsEl-18)"><path cs="100,100" d="M453.5,229.5 L458.5,229.5 L463.5,229.5 L469.5,229.5 M0,0 L0,0" fill="none" stroke-width="3" stroke-opacity="1" stroke="transparent" class="amcharts-graph-stroke"/></g><clipPath id="AmChartsEl-18"><rect x="0" y="0" width="471" height="459" rx="0" ry="0" stroke-width="0"/></clipPath></g></g><g clip-path="url(#AmChartsEl-16)"/><g><path cs="100,100" d="M0.5,229.5 L469.5,229.5 L469.5,229.5" fill="none" stroke-width="1" stroke-dasharray="3" stroke-opacity="1" stroke="#FFFFFF" transform="translate(81,20)" class="amcharts-axis-zero-grid-v1 amcharts-axis-zero-grid"/><g class="amcharts-category-axis"><path cs="100,100" d="M0.5,0.5 L469.5,0.5" fill="none" stroke-width="1" stroke-opacity="1" stroke="#FFFFFF" transform="translate(81,477)" class="amcharts-axis-line"/></g><g class="amcharts-value-axis value-axis-v1"><path cs="100,100" d="M0.5,0.5 L0.5,457.5" fill="none" stroke-width="1" stroke-opacity="1" stroke="#FFFFFF" transform="translate(81,20)" class="amcharts-axis-line" visibility="visible"/></g></g><g><g transform="translate(81,20)" visibility="hidden"><path cs="100,100" d="M0.5,0.5 L0.5,0.5 L0.5,457.5" fill="none" stroke-width="1" stroke-opacity="1" stroke="#FFFFFF" class="amcharts-cursor-line" visibility="hidden"/><path cs="100,100" d="M0.5,0.5 L469.5,0.5 L469.5,0.5" fill="none" stroke-width="1" stroke-opacity="1" stroke="#FFFFFF" class="amcharts-cursor-value-line" visibility="hidden"/></g></g><g/><g><g transform="translate(81,20)" class="amcharts-graph-line amcharts-graph-g1"><circle r="4" cx="0" cy="0" fill="#86b81b" stroke="#86b81b" fill-opacity="0" stroke-width="2" stroke-opacity="0" transform="translate(0,229)" class="amcharts-graph-bullet"/><circle r="4" cx="0" cy="0" fill="#86b81b" stroke="#86b81b" fill-opacity="0" stroke-width="2" stroke-opacity="0" transform="translate(6,229)" class="amcharts-graph-bullet"/><circle r="4" cx="0" cy="0" fill="#86b81b" stroke="#86b81b" fill-opacity="0" stroke-width="2" stroke-opacity="0" transform="translate(11,229)" class="amcharts-graph-bullet"/><circle r="4" cx="0" cy="0" fill="#86b81b" stroke="#86b81b" fill-opacity="0" stroke-width="2" stroke-opacity="0" transform="translate(16,229)" class="amcharts-graph-bullet"/><circle r="4" cx="0" cy="0" fill="#86b81b" stroke="#86b81b" fill-opacity="0" stroke-width="2" stroke-opacity="0" transform="translate(21,229)" class="amcharts-graph-bullet"/><circle r="4" cx="0" cy="0" fill="#86b81b" stroke="#86b81b" fill-opacity="0" stroke-width="2" stroke-opacity="0" transform="translate(27,229)" class="amcharts-graph-bullet"/><circle r="4" cx="0" cy="0" fill="#86b81b" stroke="#86b81b" fill-opacity="0" stroke-width="2" stroke-opacity="0" transform="translate(32,229)" class="amcharts-graph-bullet"/><circle r="4" cx="0" cy="0" fill="#86b81b" stroke="#86b81b" fill-opacity="0" stroke-width="2" stroke-opacity="0" transform="translate(37,229)" class="amcharts-graph-bullet"/><circle r="4" cx="0" cy="0" fill="#86b81b" stroke="#86b81b" fill-opacity="0" stroke-width="2" stroke-opacity="0" transform="translate(42,229)" class="amcharts-graph-bullet"/><circle r="4" cx="0" cy="0" fill="#86b81b" stroke="#86b81b" fill-opacity="0" stroke-width="2" stroke-opacity="0" transform="translate(48,229)" class="amcharts-graph-bullet"/><circle r="4" cx="0" cy="0" fill="#86b81b" stroke="#86b81b" fill-opacity="0" stroke-width="2" stroke-opacity="0" transform="translate(53,229)" class="amcharts-graph-bullet"/><circle r="4" cx="0" cy="0" fill="#86b81b" stroke="#86b81b" fill-opacity="0" stroke-width="2" stroke-opacity="0" transform="translate(58,229)" class="amcharts-graph-bullet"/><circle r="4" cx="0" cy="0" fill="#86b81b" stroke="#86b81b" fill-opacity="0" stroke-width="2" stroke-opacity="0" transform="translate(63,229)" class="amcharts-graph-bullet"/><circle r="4" cx="0" cy="0" fill="#86b81b" stroke="#86b81b" fill-opacity="0" stroke-width="2" stroke-opacity="0" transform="translate(69,229)" class="amcharts-graph-bullet"/><circle r="4" cx="0" cy="0" fill="#86b81b" stroke="#86b81b" fill-opacity="0" stroke-width="2" stroke-opacity="0" transform="translate(74,229)" class="amcharts-graph-bullet"/><circle r="4" cx="0" cy="0" fill="#86b81b" stroke="#86b81b" fill-opacity="0" stroke-width="2" stroke-opacity="0" transform="translate(79,229)" class="amcharts-graph-bullet"/><circle r="4" cx="0" cy="0" fill="#86b81b" stroke="#86b81b" fill-opacity="0" stroke-width="2" stroke-opacity="0" transform="translate(84,229)" class="amcharts-graph-bullet"/><circle r="4" cx="0" cy="0" fill="#86b81b" stroke="#86b81b" fill-opacity="0" stroke-width="2" stroke-opacity="0" transform="translate(90,229)" class="amcharts-graph-bullet"/><circle r="4" cx="0" cy="0" fill="#86b81b" stroke="#86b81b" fill-opacity="0" stroke-width="2" stroke-opacity="0" transform="translate(95,229)" class="amcharts-graph-bullet"/><circle r="4" cx="0" cy="0" fill="#86b81b" stroke="#86b81b" fill-opacity="0" stroke-width="2" stroke-opacity="0" transform="translate(100,229)" class="amcharts-graph-bullet"/><circle r="4" cx="0" cy="0" fill="#86b81b" stroke="#86b81b" fill-opacity="0" stroke-width="2" stroke-opacity="0" transform="translate(106,229)" class="amcharts-graph-bullet"/><circle r="4" cx="0" cy="0" fill="#86b81b" stroke="#86b81b" fill-opacity="0" stroke-width="2" stroke-opacity="0" transform="translate(111,229)" class="amcharts-graph-bullet"/><circle r="4" cx="0" cy="0" fill="#86b81b" stroke="#86b81b" fill-opacity="0" stroke-width="2" stroke-opacity="0" transform="translate(116,229)" class="amcharts-graph-bullet"/><circle r="4" cx="0" cy="0" fill="#86b81b" stroke="#86b81b" fill-opacity="0" stroke-width="2" stroke-opacity="0" transform="translate(121,229)" class="amcharts-graph-bullet"/><circle r="4" cx="0" cy="0" fill="#86b81b" stroke="#86b81b" fill-opacity="0" stroke-width="2" stroke-opacity="0" transform="translate(127,229)" class="amcharts-graph-bullet"/><circle r="4" cx="0" cy="0" fill="#86b81b" stroke="#86b81b" fill-opacity="0" stroke-width="2" stroke-opacity="0" transform="translate(132,229)" class="amcharts-graph-bullet"/><circle r="4" cx="0" cy="0" fill="#86b81b" stroke="#86b81b" fill-opacity="0" stroke-width="2" stroke-opacity="0" transform="translate(137,229)" class="amcharts-graph-bullet"/><circle r="4" cx="0" cy="0" fill="#86b81b" stroke="#86b81b" fill-opacity="0" stroke-width="2" stroke-opacity="0" transform="translate(142,229)" class="amcharts-graph-bullet"/><circle r="4" cx="0" cy="0" fill="#86b81b" stroke="#86b81b" fill-opacity="0" stroke-width="2" stroke-opacity="0" transform="translate(148,229)" class="amcharts-graph-bullet"/><circle r="4" cx="0" cy="0" fill="#86b81b" stroke="#86b81b" fill-opacity="0" stroke-width="2" stroke-opacity="0" transform="translate(153,229)" class="amcharts-graph-bullet"/><circle r="4" cx="0" cy="0" fill="#86b81b" stroke="#86b81b" fill-opacity="0" stroke-width="2" stroke-opacity="0" transform="translate(158,229)" class="amcharts-graph-bullet"/><circle r="4" cx="0" cy="0" fill="#86b81b" stroke="#86b81b" fill-opacity="0" stroke-width="2" stroke-opacity="0" transform="translate(163,229)" class="amcharts-graph-bullet"/><circle r="4" cx="0" cy="0" fill="#86b81b" stroke="#86b81b" fill-opacity="0" stroke-width="2" stroke-opacity="0" transform="translate(169,229)" class="amcharts-graph-bullet"/><circle r="4" cx="0" cy="0" fill="#86b81b" stroke="#86b81b" fill-opacity="0" stroke-width="2" stroke-opacity="0" transform="translate(174,229)" class="amcharts-graph-bullet"/><circle r="4" cx="0" cy="0" fill="#86b81b" stroke="#86b81b" fill-opacity="0" stroke-width="2" stroke-opacity="0" transform="translate(179,229)" class="amcharts-graph-bullet"/><circle r="4" cx="0" cy="0" fill="#86b81b" stroke="#86b81b" fill-opacity="0" stroke-width="2" stroke-opacity="0" transform="translate(184,229)" class="amcharts-graph-bullet"/><circle r="4" cx="0" cy="0" fill="#86b81b" stroke="#86b81b" fill-opacity="0" stroke-width="2" stroke-opacity="0" transform="translate(190,229)" class="amcharts-graph-bullet"/><circle r="4" cx="0" cy="0" fill="#86b81b" stroke="#86b81b" fill-opacity="0" stroke-width="2" stroke-opacity="0" transform="translate(195,229)" class="amcharts-graph-bullet"/><circle r="4" cx="0" cy="0" fill="#86b81b" stroke="#86b81b" fill-opacity="0" stroke-width="2" stroke-opacity="0" transform="translate(200,229)" class="amcharts-graph-bullet"/><circle r="4" cx="0" cy="0" fill="#86b81b" stroke="#86b81b" fill-opacity="0" stroke-width="2" stroke-opacity="0" transform="translate(206,229)" class="amcharts-graph-bullet"/><circle r="4" cx="0" cy="0" fill="#86b81b" stroke="#86b81b" fill-opacity="0" stroke-width="2" stroke-opacity="0" transform="translate(211,229)" class="amcharts-graph-bullet"/><circle r="4" cx="0" cy="0" fill="#86b81b" stroke="#86b81b" fill-opacity="0" stroke-width="2" stroke-opacity="0" transform="translate(216,229)" class="amcharts-graph-bullet"/><circle r="4" cx="0" cy="0" fill="#86b81b" stroke="#86b81b" fill-opacity="0" stroke-width="2" stroke-opacity="0" transform="translate(221,229)" class="amcharts-graph-bullet"/><circle r="4" cx="0" cy="0" fill="#86b81b" stroke="#86b81b" fill-opacity="0" stroke-width="2" stroke-opacity="0" transform="translate(227,229)" class="amcharts-graph-bullet"/><circle r="4" cx="0" cy="0" fill="#86b81b" stroke="#86b81b" fill-opacity="0" stroke-width="2" stroke-opacity="0" transform="translate(232,229)" class="amcharts-graph-bullet"/><circle r="4" cx="0" cy="0" fill="#86b81b" stroke="#86b81b" fill-opacity="0" stroke-width="2" stroke-opacity="0" transform="translate(237,229)" class="amcharts-graph-bullet"/><circle r="4" cx="0" cy="0" fill="#86b81b" stroke="#86b81b" fill-opacity="0" stroke-width="2" stroke-opacity="0" transform="translate(242,229)" class="amcharts-graph-bullet"/><circle r="4" cx="0" cy="0" fill="#86b81b" stroke="#86b81b" fill-opacity="0" stroke-width="2" stroke-opacity="0" transform="translate(248,229)" class="amcharts-graph-bullet"/><circle r="4" cx="0" cy="0" fill="#86b81b" stroke="#86b81b" fill-opacity="0" stroke-width="2" stroke-opacity="0" transform="translate(253,229)" class="amcharts-graph-bullet"/><circle r="4" cx="0" cy="0" fill="#86b81b" stroke="#86b81b" fill-opacity="0" stroke-width="2" stroke-opacity="0" transform="translate(258,229)" class="amcharts-graph-bullet"/><circle r="4" cx="0" cy="0" fill="#86b81b" stroke="#86b81b" fill-opacity="0" stroke-width="2" stroke-opacity="0" transform="translate(263,229)" class="amcharts-graph-bullet"/><circle r="4" cx="0" cy="0" fill="#86b81b" stroke="#86b81b" fill-opacity="0" stroke-width="2" stroke-opacity="0" transform="translate(269,229)" class="amcharts-graph-bullet"/><circle r="4" cx="0" cy="0" fill="#86b81b" stroke="#86b81b" fill-opacity="0" stroke-width="2" stroke-opacity="0" transform="translate(274,229)" class="amcharts-graph-bullet"/><circle r="4" cx="0" cy="0" fill="#86b81b" stroke="#86b81b" fill-opacity="0" stroke-width="2" stroke-opacity="0" transform="translate(279,229)" class="amcharts-graph-bullet"/><circle r="4" cx="0" cy="0" fill="#86b81b" stroke="#86b81b" fill-opacity="0" stroke-width="2" stroke-opacity="0" transform="translate(285,229)" class="amcharts-graph-bullet"/><circle r="4" cx="0" cy="0" fill="#86b81b" stroke="#86b81b" fill-opacity="0" stroke-width="2" stroke-opacity="0" transform="translate(290,229)" class="amcharts-graph-bullet"/><circle r="4" cx="0" cy="0" fill="#86b81b" stroke="#86b81b" fill-opacity="0" stroke-width="2" stroke-opacity="0" transform="translate(295,229)" class="amcharts-graph-bullet"/><circle r="4" cx="0" cy="0" fill="#86b81b" stroke="#86b81b" fill-opacity="0" stroke-width="2" stroke-opacity="0" transform="translate(300,229)" class="amcharts-graph-bullet"/><circle r="4" cx="0" cy="0" fill="#86b81b" stroke="#86b81b" fill-opacity="0" stroke-width="2" stroke-opacity="0" transform="translate(306,229)" class="amcharts-graph-bullet"/><circle r="4" cx="0" cy="0" fill="#86b81b" stroke="#86b81b" fill-opacity="0" stroke-width="2" stroke-opacity="0" transform="translate(311,229)" class="amcharts-graph-bullet"/><circle r="4" cx="0" cy="0" fill="#86b81b" stroke="#86b81b" fill-opacity="0" stroke-width="2" stroke-opacity="0" transform="translate(316,229)" class="amcharts-graph-bullet"/><circle r="4" cx="0" cy="0" fill="#86b81b" stroke="#86b81b" fill-opacity="0" stroke-width="2" stroke-opacity="0" transform="translate(321,229)" class="amcharts-graph-bullet"/><circle r="4" cx="0" cy="0" fill="#86b81b" stroke="#86b81b" fill-opacity="0" stroke-width="2" stroke-opacity="0" transform="translate(327,229)" class="amcharts-graph-bullet"/><circle r="4" cx="0" cy="0" fill="#86b81b" stroke="#86b81b" fill-opacity="0" stroke-width="2" stroke-opacity="0" transform="translate(332,229)" class="amcharts-graph-bullet"/><circle r="4" cx="0" cy="0" fill="#86b81b" stroke="#86b81b" fill-opacity="0" stroke-width="2" stroke-opacity="0" transform="translate(337,229)" class="amcharts-graph-bullet"/><circle r="4" cx="0" cy="0" fill="#86b81b" stroke="#86b81b" fill-opacity="0" stroke-width="2" stroke-opacity="0" transform="translate(342,229)" class="amcharts-graph-bullet"/><circle r="4" cx="0" cy="0" fill="#86b81b" stroke="#86b81b" fill-opacity="0" stroke-width="2" stroke-opacity="0" transform="translate(348,229)" class="amcharts-graph-bullet"/><circle r="4" cx="0" cy="0" fill="#86b81b" stroke="#86b81b" fill-opacity="0" stroke-width="2" stroke-opacity="0" transform="translate(353,229)" class="amcharts-graph-bullet"/><circle r="4" cx="0" cy="0" fill="#86b81b" stroke="#86b81b" fill-opacity="0" stroke-width="2" stroke-opacity="0" transform="translate(358,229)" class="amcharts-graph-bullet"/><circle r="4" cx="0" cy="0" fill="#86b81b" stroke="#86b81b" fill-opacity="0" stroke-width="2" stroke-opacity="0" transform="translate(363,229)" class="amcharts-graph-bullet"/><circle r="4" cx="0" cy="0" fill="#86b81b" stroke="#86b81b" fill-opacity="0" stroke-width="2" stroke-opacity="0" transform="translate(369,229)" class="amcharts-graph-bullet"/><circle r="4" cx="0" cy="0" fill="#86b81b" stroke="#86b81b" fill-opacity="0" stroke-width="2" stroke-opacity="0" transform="translate(374,229)" class="amcharts-graph-bullet"/><circle r="4" cx="0" cy="0" fill="#86b81b" stroke="#86b81b" fill-opacity="0" stroke-width="2" stroke-opacity="0" transform="translate(379,229)" class="amcharts-graph-bullet"/><circle r="4" cx="0" cy="0" fill="#86b81b" stroke="#86b81b" fill-opacity="0" stroke-width="2" stroke-opacity="0" transform="translate(385,229)" class="amcharts-graph-bullet"/><circle r="4" cx="0" cy="0" fill="#86b81b" stroke="#86b81b" fill-opacity="0" stroke-width="2" stroke-opacity="0" transform="translate(390,229)" class="amcharts-graph-bullet"/><circle r="4" cx="0" cy="0" fill="#86b81b" stroke="#86b81b" fill-opacity="0" stroke-width="2" stroke-opacity="0" transform="translate(395,229)" class="amcharts-graph-bullet"/><circle r="4" cx="0" cy="0" fill="#86b81b" stroke="#86b81b" fill-opacity="0" stroke-width="2" stroke-opacity="0" transform="translate(400,229)" class="amcharts-graph-bullet"/><circle r="4" cx="0" cy="0" fill="#86b81b" stroke="#86b81b" fill-opacity="0" stroke-width="2" stroke-opacity="0" transform="translate(406,229)" class="amcharts-graph-bullet"/><circle r="4" cx="0" cy="0" fill="#86b81b" stroke="#86b81b" fill-opacity="0" stroke-width="2" stroke-opacity="0" transform="translate(411,229)" class="amcharts-graph-bullet"/><circle r="4" cx="0" cy="0" fill="#86b81b" stroke="#86b81b" fill-opacity="0" stroke-width="2" stroke-opacity="0" transform="translate(416,229)" class="amcharts-graph-bullet"/><circle r="4" cx="0" cy="0" fill="#86b81b" stroke="#86b81b" fill-opacity="0" stroke-width="2" stroke-opacity="0" transform="translate(421,229)" class="amcharts-graph-bullet"/><circle r="4" cx="0" cy="0" fill="#86b81b" stroke="#86b81b" fill-opacity="0" stroke-width="2" stroke-opacity="0" transform="translate(427,229)" class="amcharts-graph-bullet"/><circle r="4" cx="0" cy="0" fill="#86b81b" stroke="#86b81b" fill-opacity="0" stroke-width="2" stroke-opacity="0" transform="translate(432,229)" class="amcharts-graph-bullet"/><circle r="4" cx="0" cy="0" fill="#86b81b" stroke="#86b81b" fill-opacity="0" stroke-width="2" stroke-opacity="0" transform="translate(437,229)" class="amcharts-graph-bullet"/><circle r="4" cx="0" cy="0" fill="#86b81b" stroke="#86b81b" fill-opacity="0" stroke-width="2" stroke-opacity="0" transform="translate(442,229)" class="amcharts-graph-bullet"/><circle r="4" cx="0" cy="0" fill="#86b81b" stroke="#86b81b" fill-opacity="0" stroke-width="2" stroke-opacity="0" transform="translate(448,229)" class="amcharts-graph-bullet"/><circle r="4" cx="0" cy="0" fill="transparent" stroke="transparent" fill-opacity="0" stroke-width="2" stroke-opacity="0" transform="translate(453,229)" class="amcharts-graph-bullet"/><circle r="4" cx="0" cy="0" fill="transparent" stroke="transparent" fill-opacity="0" stroke-width="2" stroke-opacity="0" transform="translate(458,229)" class="amcharts-graph-bullet"/><circle r="4" cx="0" cy="0" fill="transparent" stroke="transparent" fill-opacity="0" stroke-width="2" stroke-opacity="0" transform="translate(463,229)" class="amcharts-graph-bullet"/><circle r="4" cx="0" cy="0" fill="transparent" stroke="transparent" fill-opacity="0" stroke-width="2" stroke-opacity="0" transform="translate(469,229)" class="amcharts-graph-bullet"/></g></g><g><g class="amcharts-category-axis" transform="translate(81,20)"><text y="8" fill="#e7e7e7" font-family="monospace" font-size="15.348225000000001" opacity="1" text-anchor="start" transform="translate(3,472)" class="amcharts-axis-label"><tspan y="8" x="0" style="font-size: 15.3482px;">09:00</tspan></text><text y="8" fill="#e7e7e7" font-family="monospace" font-size="15.348225000000001" opacity="1" text-anchor="start" transform="translate(98,472)" class="amcharts-axis-label"><tspan y="8" x="0" style="font-size: 15.3482px;">12:00</tspan></text><text y="8" fill="#e7e7e7" font-family="monospace" font-size="15.348225000000001" opacity="1" text-anchor="start" transform="translate(192,472)" class="amcharts-axis-label"><tspan y="8" x="0" style="font-size: 15.3482px;">15:00</tspan></text><text y="8" fill="#e7e7e7" font-family="monospace" font-size="15.348225000000001" opacity="1" text-anchor="start" transform="translate(287,472)" class="amcharts-axis-label"><tspan y="8" x="0" style="font-size: 15.3482px;">18:00</tspan></text><text y="8" fill="#e7e7e7" font-family="monospace" font-size="15.348225000000001" opacity="1" text-anchor="start" transform="translate(382,472)" class="amcharts-axis-label"><tspan y="8" x="0" style="font-size: 15.3482px;">21:00</tspan></text></g><g class="amcharts-value-axis value-axis-v1" transform="translate(81,20)" visibility="visible"><text y="8" fill="#e7e7e7" font-family="monospace" font-size="15.348225000000001" opacity="1" text-anchor="end" transform="translate(-12,455)" class="amcharts-axis-label"><tspan y="8" x="0" style="font-size: 15.3482px;">-10,000</tspan></text><text y="8" fill="#e7e7e7" font-family="monospace" font-size="15.348225000000001" opacity="1" text-anchor="end" transform="translate(-12,409)" class="amcharts-axis-label"><tspan y="8" x="0" style="font-size: 15.3482px;"> -8,000</tspan></text><text y="8" fill="#e7e7e7" font-family="monospace" font-size="15.348225000000001" opacity="1" text-anchor="end" transform="translate(-12,364)" class="amcharts-axis-label"><tspan y="8" x="0" style="font-size: 15.3482px;"> -6,000</tspan></text><text y="8" fill="#e7e7e7" font-family="monospace" font-size="15.348225000000001" opacity="1" text-anchor="end" transform="translate(-12,318)" class="amcharts-axis-label"><tspan y="8" x="0" style="font-size: 15.3482px;"> -4,000</tspan></text><text y="8" fill="#e7e7e7" font-family="monospace" font-size="15.348225000000001" opacity="1" text-anchor="end" transform="translate(-12,272)" class="amcharts-axis-label"><tspan y="8" x="0" style="font-size: 15.3482px;"> -2,000</tspan></text><text y="8" fill="#e7e7e7" font-family="monospace" font-size="15.348225000000001" opacity="1" text-anchor="end" transform="translate(-12,227)" class="amcharts-axis-label"><tspan y="8" x="0" style="font-size: 15.3482px;">      0</tspan></text><text y="8" fill="#e7e7e7" font-family="monospace" font-size="15.348225000000001" opacity="1" text-anchor="end" transform="translate(-12,181)" class="amcharts-axis-label"><tspan y="8" x="0" style="font-size: 15.3482px;">  2,000</tspan></text><text y="8" fill="#e7e7e7" font-family="monospace" font-size="15.348225000000001" opacity="1" text-anchor="end" transform="translate(-12,135)" class="amcharts-axis-label"><tspan y="8" x="0" style="font-size: 15.3482px;">  4,000</tspan></text><text y="8" fill="#e7e7e7" font-family="monospace" font-size="15.348225000000001" opacity="1" text-anchor="end" transform="translate(-12,89)" class="amcharts-axis-label"><tspan y="8" x="0" style="font-size: 15.3482px;">  6,000</tspan></text><text y="8" fill="#e7e7e7" font-family="monospace" font-size="15.348225000000001" opacity="1" text-anchor="end" transform="translate(-12,44)" class="amcharts-axis-label"><tspan y="8" x="0" style="font-size: 15.3482px;">  8,000</tspan></text><text y="8" fill="#e7e7e7" font-family="monospace" font-size="15.348225000000001" opacity="1" text-anchor="end" transform="translate(-12,-2)" class="amcharts-axis-label"><tspan y="8" x="0" style="font-size: 15.3482px;"> 10,000</tspan></text></g></g><g><g/></g><g/><g/><g/><clipPath id="AmChartsEl-16"><rect x="81" y="20" width="469" height="457" rx="0" ry="0" stroke-width="0"/></clipPath></svg>