<svg xmlns="http://www.w3.org/2000/svg" version="1.1" style="position: absolute; width: 571px; height: 819px; top: 0.15625px;"><desc>JavaScript chart by amCharts 3.14.1</desc><g><path cs="100,100" d="M0.5,0.5 L570.5,0.5 L570.5,818.5 L0.5,818.5 Z" fill="#000000" stroke="#000000" fill-opacity="0" stroke-width="1" stroke-opacity="0" class="amcharts-bg"/><path cs="100,100" d="M0.5,0.5 L469.5,0.5 L469.5,764.5 L0.5,764.5 L0.5,0.5 Z" fill="#FFFFFF" stroke="#000000" fill-opacity="0" stroke-width="1" stroke-opacity="0" class="amcharts-plot-area" transform="translate(81,20)"/></g><g><g class="amcharts-category-axis" transform="translate(81,20)"><g><path cs="100,100" d="M0.5,0.5 L0.5,5.5" fill="none" stroke-width="1" stroke-opacity="1" stroke="#FFFFFF" transform="translate(0,764)" class="amcharts-axis-tick"/><path cs="100,100" d="M0.5,764.5 L0.5,764.5 L0.5,0.5" fill="none" stroke-width="1" stroke-dasharray="3" stroke-opacity="0.5" stroke="#FFFFFF" class="amcharts-axis-grid"/></g><g><path cs="100,100" d="M95.5,0.5 L95.5,5.5" fill="none" stroke-width="1" stroke-opacity="1" stroke="#FFFFFF" transform="translate(0,764)" class="amcharts-axis-tick"/><path cs="100,100" d="M95.5,764.5 L95.5,764.5 L95.5,0.5" fill="none" stroke-width="1" stroke-dasharray="3" stroke-opacity="0.5" stroke="#FFFFFF" class="amcharts-axis-grid"/></g><g><path cs="100,100" d="M189.5,0.5 L189.5,5.5" fill="none" stroke-width="1" stroke-opacity="1" stroke="#FFFFFF" transform="translate(0,764)" class="amcharts-axis-tick"/><path cs="100,100" d="M189.5,764.5 L189.5,764.5 L189.5,0.5" fill="none" stroke-width="1" stroke-dasharray="3" stroke-opacity="0.5" stroke="#FFFFFF" class="amcharts-axis-grid"/></g><g><path cs="100,100" d="M284.5,0.5 L284.5,5.5" fill="none" stroke-width="1" stroke-opacity="1" stroke="#FFFFFF" transform="translate(0,764)" class="amcharts-axis-tick"/><path cs="100,100" d="M284.5,764.5 L284.5,764.5 L284.5,0.5" fill="none" stroke-width="1" stroke-dasharray="3" stroke-opacity="0.5" stroke="#FFFFFF" class="amcharts-axis-grid"/></g><g><path cs="100,100" d="M379.5,0.5 L379.5,5.5" fill="none" stroke-width="1" stroke-opacity="1" stroke="#FFFFFF" transform="translate(0,764)" class="amcharts-axis-tick"/><path cs="100,100" d="M379.5,764.5 L379.5,764.5 L379.5,0.5" fill="none" stroke-width="1" stroke-dasharray="3" stroke-opacity="0.5" stroke="#FFFFFF" class="amcharts-axis-grid"/></g></g><g class="amcharts-value-axis value-axis-v1" transform="translate(81,20)" visibility="visible"><g><path cs="100,100" d="M0.5,764.5 L5.5,764.5" fill="none" stroke-width="1" stroke-opacity="1" stroke="#FFFFFF" transform="translate(-6,0)" class="amcharts-axis-tick"/><path cs="100,100" d="M0.5,764.5 L0.5,764.5 L469.5,764.5" fill="none" stroke-width="1" stroke-dasharray="3" stroke-opacity="0.5" stroke="#FFFFFF" class="amcharts-axis-grid"/></g><g><path cs="100,100" d="M0.5,688.5 L5.5,688.5" fill="none" stroke-width="1" stroke-opacity="1" stroke="#FFFFFF" transform="translate(-6,0)" class="amcharts-axis-tick"/><path cs="100,100" d="M0.5,688.5 L0.5,688.5 L469.5,688.5" fill="none" stroke-width="1" stroke-dasharray="3" stroke-opacity="0.5" stroke="#FFFFFF" class="amcharts-axis-grid"/></g><g><path cs="100,100" d="M0.5,611.5 L5.5,611.5" fill="none" stroke-width="1" stroke-opacity="1" stroke="#FFFFFF" transform="translate(-6,0)" class="amcharts-axis-tick"/><path cs="100,100" d="M0.5,611.5 L0.5,611.5 L469.5,611.5" fill="none" stroke-width="1" stroke-dasharray="3" stroke-opacity="0.5" stroke="#FFFFFF" class="amcharts-axis-grid"/></g><g><path cs="100,100" d="M0.5,535.5 L5.5,535.5" fill="none" stroke-width="1" stroke-opacity="1" stroke="#FFFFFF" transform="translate(-6,0)" class="amcharts-axis-tick"/><path cs="100,100" d="M0.5,535.5 L0.5,535.5 L469.5,535.5" fill="none" stroke-width="1" stroke-dasharray="3" stroke-opacity="0.5" stroke="#FFFFFF" class="amcharts-axis-grid"/></g><g><path cs="100,100" d="M0.5,458.5 L5.5,458.5" fill="none" stroke-width="1" stroke-opacity="1" stroke="#FFFFFF" transform="translate(-6,0)" class="amcharts-axis-tick"/><path cs="100,100" d="M0.5,458.5 L0.5,458.5 L469.5,458.5" fill="none" stroke-width="1" stroke-dasharray="3" stroke-opacity="0.5" stroke="#FFFFFF" class="amcharts-axis-grid"/></g><g><path cs="100,100" d="M0.5,382.5 L5.5,382.5" fill="none" stroke-width="1" stroke-opacity="1" stroke="#FFFFFF" transform="translate(-6,0)" class="amcharts-axis-tick"/><path cs="100,100" d="M0.5,382.5 L0.5,382.5 L469.5,382.5" fill="none" stroke-width="1" stroke-dasharray="3" stroke-opacity="0.5" stroke="#FFFFFF" class="amcharts-axis-grid"/></g><g><path cs="100,100" d="M0.5,306.5 L5.5,306.5" fill="none" stroke-width="1" stroke-opacity="1" stroke="#FFFFFF" transform="translate(-6,0)" class="amcharts-axis-tick"/><path cs="100,100" d="M0.5,306.5 L0.5,306.5 L469.5,306.5" fill="none" stroke-width="1" stroke-dasharray="3" stroke-opacity="0.5" stroke="#FFFFFF" class="amcharts-axis-grid"/></g><g><path cs="100,100" d="M0.5,229.5 L5.5,229.5" fill="none" stroke-width="1" stroke-opacity="1" stroke="#FFFFFF" transform="translate(-6,0)" class="amcharts-axis-tick"/><path cs="100,100" d="M0.5,229.5 L0.5,229.5 L469.5,229.5" fill="none" stroke-width="1" stroke-dasharray="3" stroke-opacity="0.5" stroke="#FFFFFF" class="amcharts-axis-grid"/></g><g><path cs="100,100" d="M0.5,153.5 L5.5,153.5" fill="none" stroke-width="1" stroke-opacity="1" stroke="#FFFFFF" transform="translate(-6,0)" class="amcharts-axis-tick"/><path cs="100,100" d="M0.5,153.5 L0.5,153.5 L469.5,153.5" fill="none" stroke-width="1" stroke-dasharray="3" stroke-opacity="0.5" stroke="#FFFFFF" class="amcharts-axis-grid"/></g><g><path cs="100,100" d="M0.5,76.5 L5.5,76.5" fill="none" stroke-width="1" stroke-opacity="1" stroke="#FFFFFF" transform="translate(-6,0)" class="amcharts-axis-tick"/><path cs="100,100" d="M0.5,76.5 L0.5,76.5 L469.5,76.5" fill="none" stroke-width="1" stroke-dasharray="3" stroke-opacity="0.5" stroke="#FFFFFF" class="amcharts-axis-grid"/></g><g><path cs="100,100" d="M0.5,0.5 L5.5,0.5" fill="none" stroke-width="1" stroke-opacity="1" stroke="#FFFFFF" transform="translate(-6,0)" class="amcharts-axis-tick"/><path cs="100,100" d="M0.5,0.5 L0.5,0.5 L469.5,0.5" fill="none" stroke-width="1" stroke-dasharray="3" stroke-opacity="0.5" stroke="#FFFFFF" class="amcharts-axis-grid"/></g></g></g><g/><g/><g/><g/><g><g transform="translate(81,20)" class="amcharts-graph-line amcharts-graph-g1"><g/><g/><g clip-path="url(#AmChartsEl-15)"><path cs="100,100" d="M0.5,382.5 L6.5,382.5 L11.5,382.5 L16.5,382.5 L21.5,382.5 L27.5,382.5 L32.5,382.5 L37.5,382.5 L42.5,382.5 L48.5,382.5 L53.5,382.5 L58.5,382.5 L63.5,383.5 L69.5,388.5 L79.5,388.5 L90.5,385.5 L100.5,396.5 L111.5,401.5 L121.5,411.5 L132.5,420.5 L142.5,420.5 L174.5,423.5 L227.5,426.5 L248.5,415.5 L258.5,298.5 L269.5,200.5 L279.5,191.5 L290.5,174.5 L300.5,186.5 L311.5,196.5 L321.5,198.5 L332.5,209.5 L342.5,220.5 L353.5,108.5 L363.5,41.5 L374.5,39.5 L385.5,37.5 L395.5,50.5 L453.5,50.5 M0,0 L0,0" fill="none" stroke-width="3" stroke-opacity="1" stroke="#ffff00" class="amcharts-graph-stroke"/></g><clipPath id="AmChartsEl-15"><rect x="0" y="0" width="471" height="766" rx="0" ry="0" stroke-width="0"/></clipPath></g></g><g clip-path="url(#AmChartsEl-14)"/><g><path cs="100,100" d="M0.5,382.5 L469.5,382.5 L469.5,382.5" fill="none" stroke-width="1" stroke-dasharray="3" stroke-opacity="1" stroke="#FFFFFF" transform="translate(81,20)" class="amcharts-axis-zero-grid-v1 amcharts-axis-zero-grid"/><g class="amcharts-category-axis"><path cs="100,100" d="M0.5,0.5 L469.5,0.5" fill="none" stroke-width="1" stroke-opacity="1" stroke="#FFFFFF" transform="translate(81,784)" class="amcharts-axis-line"/></g><g class="amcharts-value-axis value-axis-v1"><path cs="100,100" d="M0.5,0.5 L0.5,764.5" fill="none" stroke-width="1" stroke-opacity="1" stroke="#FFFFFF" transform="translate(81,20)" class="amcharts-axis-line" visibility="visible"/></g></g><g><g transform="translate(81,20)" visibility="hidden"><path cs="100,100" d="M0.5,0.5 L0.5,0.5 L0.5,764.5" fill="none" stroke-width="1" stroke-opacity="1" stroke="#FFFFFF" class="amcharts-cursor-line" visibility="hidden"/><path cs="100,100" d="M0.5,0.5 L469.5,0.5 L469.5,0.5" fill="none" stroke-width="1" stroke-opacity="1" stroke="#FFFFFF" class="amcharts-cursor-value-line" visibility="hidden"/></g></g><g/><g><g transform="translate(81,20)" class="amcharts-graph-line amcharts-graph-g1"><circle r="4" cx="0" cy="0" fill="#ffff00" stroke="#ffff00" fill-opacity="0" stroke-width="2" stroke-opacity="0" transform="translate(0,382)" class="amcharts-graph-bullet"/><circle r="4" cx="0" cy="0" fill="#ffff00" stroke="#ffff00" fill-opacity="0" stroke-width="2" stroke-opacity="0" transform="translate(6,382)" class="amcharts-graph-bullet"/><circle r="4" cx="0" cy="0" fill="#ffff00" stroke="#ffff00" fill-opacity="0" stroke-width="2" stroke-opacity="0" transform="translate(11,382)" class="amcharts-graph-bullet"/><circle r="4" cx="0" cy="0" fill="#ffff00" stroke="#ffff00" fill-opacity="0" stroke-width="2" stroke-opacity="0" transform="translate(16,382)" class="amcharts-graph-bullet"/><circle r="4" cx="0" cy="0" fill="#ffff00" stroke="#ffff00" fill-opacity="0" stroke-width="2" stroke-opacity="0" transform="translate(21,382)" class="amcharts-graph-bullet"/><circle r="4" cx="0" cy="0" fill="#ffff00" stroke="#ffff00" fill-opacity="0" stroke-width="2" stroke-opacity="0" transform="translate(27,382)" class="amcharts-graph-bullet"/><circle r="4" cx="0" cy="0" fill="#ffff00" stroke="#ffff00" fill-opacity="0" stroke-width="2" stroke-opacity="0" transform="translate(32,382)" class="amcharts-graph-bullet"/><circle r="4" cx="0" cy="0" fill="#ffff00" stroke="#ffff00" fill-opacity="0" stroke-width="2" stroke-opacity="0" transform="translate(37,382)" class="amcharts-graph-bullet"/><circle r="4" cx="0" cy="0" fill="#ffff00" stroke="#ffff00" fill-opacity="0" stroke-width="2" stroke-opacity="0" transform="translate(42,382)" class="amcharts-graph-bullet"/><circle r="4" cx="0" cy="0" fill="#ffff00" stroke="#ffff00" fill-opacity="0" stroke-width="2" stroke-opacity="0" transform="translate(48,382)" class="amcharts-graph-bullet"/><circle r="4" cx="0" cy="0" fill="#ffff00" stroke="#ffff00" fill-opacity="0" stroke-width="2" stroke-opacity="0" transform="translate(53,382)" class="amcharts-graph-bullet"/><circle r="4" cx="0" cy="0" fill="#ffff00" stroke="#ffff00" fill-opacity="0" stroke-width="2" stroke-opacity="0" transform="translate(58,382)" class="amcharts-graph-bullet"/><circle r="4" cx="0" cy="0" fill="#ffff00" stroke="#ffff00" fill-opacity="0" stroke-width="2" stroke-opacity="0" transform="translate(63,383)" class="amcharts-graph-bullet"/><circle r="4" cx="0" cy="0" fill="#ffff00" stroke="#ffff00" fill-opacity="0" stroke-width="2" stroke-opacity="0" transform="translate(69,388)" class="amcharts-graph-bullet"/><circle r="4" cx="0" cy="0" fill="#ffff00" stroke="#ffff00" fill-opacity="0" stroke-width="2" stroke-opacity="0" transform="translate(79,388)" class="amcharts-graph-bullet"/><circle r="4" cx="0" cy="0" fill="#ffff00" stroke="#ffff00" fill-opacity="0" stroke-width="2" stroke-opacity="0" transform="translate(90,385)" class="amcharts-graph-bullet"/><circle r="4" cx="0" cy="0" fill="#ffff00" stroke="#ffff00" fill-opacity="0" stroke-width="2" stroke-opacity="0" transform="translate(100,396)" class="amcharts-graph-bullet"/><circle r="4" cx="0" cy="0" fill="#ffff00" stroke="#ffff00" fill-opacity="0" stroke-width="2" stroke-opacity="0" transform="translate(111,401)" class="amcharts-graph-bullet"/><circle r="4" cx="0" cy="0" fill="#ffff00" stroke="#ffff00" fill-opacity="0" stroke-width="2" stroke-opacity="0" transform="translate(121,411)" class="amcharts-graph-bullet"/><circle r="4" cx="0" cy="0" fill="#ffff00" stroke="#ffff00" fill-opacity="0" stroke-width="2" stroke-opacity="0" transform="translate(132,420)" class="amcharts-graph-bullet"/><circle r="4" cx="0" cy="0" fill="#ffff00" stroke="#ffff00" fill-opacity="0" stroke-width="2" stroke-opacity="0" transform="translate(142,420)" class="amcharts-graph-bullet"/><circle r="4" cx="0" cy="0" fill="#ffff00" stroke="#ffff00" fill-opacity="0" stroke-width="2" stroke-opacity="0" transform="translate(174,423)" class="amcharts-graph-bullet"/><circle r="4" cx="0" cy="0" fill="#ffff00" stroke="#ffff00" fill-opacity="0" stroke-width="2" stroke-opacity="0" transform="translate(227,426)" class="amcharts-graph-bullet"/><circle r="4" cx="0" cy="0" fill="#ffff00" stroke="#ffff00" fill-opacity="0" stroke-width="2" stroke-opacity="0" transform="translate(248,415)" class="amcharts-graph-bullet"/><circle r="4" cx="0" cy="0" fill="#ffff00" stroke="#ffff00" fill-opacity="0" stroke-width="2" stroke-opacity="0" transform="translate(258,298)" class="amcharts-graph-bullet"/><circle r="4" cx="0" cy="0" fill="#ffff00" stroke="#ffff00" fill-opacity="0" stroke-width="2" stroke-opacity="0" transform="translate(269,200)" class="amcharts-graph-bullet"/><circle r="4" cx="0" cy="0" fill="#ffff00" stroke="#ffff00" fill-opacity="0" stroke-width="2" stroke-opacity="0" transform="translate(279,191)" class="amcharts-graph-bullet"/><circle r="4" cx="0" cy="0" fill="#ffff00" stroke="#ffff00" fill-opacity="0" stroke-width="2" stroke-opacity="0" transform="translate(290,174)" class="amcharts-graph-bullet"/><circle r="4" cx="0" cy="0" fill="#ffff00" stroke="#ffff00" fill-opacity="0" stroke-width="2" stroke-opacity="0" transform="translate(300,186)" class="amcharts-graph-bullet"/><circle r="4" cx="0" cy="0" fill="#ffff00" stroke="#ffff00" fill-opacity="0" stroke-width="2" stroke-opacity="0" transform="translate(311,196)" class="amcharts-graph-bullet"/><circle r="4" cx="0" cy="0" fill="#ffff00" stroke="#ffff00" fill-opacity="0" stroke-width="2" stroke-opacity="0" transform="translate(321,198)" class="amcharts-graph-bullet"/><circle r="4" cx="0" cy="0" fill="#ffff00" stroke="#ffff00" fill-opacity="0" stroke-width="2" stroke-opacity="0" transform="translate(332,209)" class="amcharts-graph-bullet"/><circle r="4" cx="0" cy="0" fill="#ffff00" stroke="#ffff00" fill-opacity="0" stroke-width="2" stroke-opacity="0" transform="translate(342,220)" class="amcharts-graph-bullet"/><circle r="4" cx="0" cy="0" fill="#ffff00" stroke="#ffff00" fill-opacity="0" stroke-width="2" stroke-opacity="0" transform="translate(353,108)" class="amcharts-graph-bullet"/><circle r="4" cx="0" cy="0" fill="#ffff00" stroke="#ffff00" fill-opacity="0" stroke-width="2" stroke-opacity="0" transform="translate(363,41)" class="amcharts-graph-bullet"/><circle r="4" cx="0" cy="0" fill="#ffff00" stroke="#ffff00" fill-opacity="0" stroke-width="2" stroke-opacity="0" transform="translate(374,39)" class="amcharts-graph-bullet"/><circle r="4" cx="0" cy="0" fill="#ffff00" stroke="#ffff00" fill-opacity="0" stroke-width="2" stroke-opacity="0" transform="translate(385,37)" class="amcharts-graph-bullet"/><circle r="4" cx="0" cy="0" fill="#ffff00" stroke="#ffff00" fill-opacity="0" stroke-width="2" stroke-opacity="0" transform="translate(395,50)" class="amcharts-graph-bullet"/><circle r="4" cx="0" cy="0" fill="transparent" stroke="transparent" fill-opacity="0" stroke-width="2" stroke-opacity="0" transform="translate(453,50)" class="amcharts-graph-bullet"/></g></g><g><g class="amcharts-category-axis" transform="translate(81,20)"><text y="8" fill="#e7e7e7" font-family="monospace" font-size="15.348225000000001" opacity="1" text-anchor="start" transform="translate(3,779)" class="amcharts-axis-label"><tspan y="8" x="0" style="font-size: 15.3482px;">09:00</tspan></text><text y="8" fill="#e7e7e7" font-family="monospace" font-size="15.348225000000001" opacity="1" text-anchor="start" transform="translate(98,779)" class="amcharts-axis-label"><tspan y="8" x="0" style="font-size: 15.3482px;">12:00</tspan></text><text y="8" fill="#e7e7e7" font-family="monospace" font-size="15.348225000000001" opacity="1" text-anchor="start" transform="translate(192,779)" class="amcharts-axis-label"><tspan y="8" x="0" style="font-size: 15.3482px;">15:00</tspan></text><text y="8" fill="#e7e7e7" font-family="monospace" font-size="15.348225000000001" opacity="1" text-anchor="start" transform="translate(287,779)" class="amcharts-axis-label"><tspan y="8" x="0" style="font-size: 15.3482px;">18:00</tspan></text><text y="8" fill="#e7e7e7" font-family="monospace" font-size="15.348225000000001" opacity="1" text-anchor="start" transform="translate(382,779)" class="amcharts-axis-label"><tspan y="8" x="0" style="font-size: 15.3482px;">21:00</tspan></text></g><g class="amcharts-value-axis value-axis-v1" transform="translate(81,20)" visibility="visible"><text y="8" fill="#e7e7e7" font-family="monospace" font-size="15.348225000000001" opacity="1" text-anchor="end" transform="translate(-12,762)" class="amcharts-axis-label"><tspan y="8" x="0" style="font-size: 15.3482px;">-50,000</tspan></text><text y="8" fill="#e7e7e7" font-family="monospace" font-size="15.348225000000001" opacity="1" text-anchor="end" transform="translate(-12,686)" class="amcharts-axis-label"><tspan y="8" x="0" style="font-size: 15.3482px;">-40,000</tspan></text><text y="8" fill="#e7e7e7" font-family="monospace" font-size="15.348225000000001" opacity="1" text-anchor="end" transform="translate(-12,609)" class="amcharts-axis-label"><tspan y="8" x="0" style="font-size: 15.3482px;">-30,000</tspan></text><text y="8" fill="#e7e7e7" font-family="monospace" font-size="15.348225000000001" opacity="1" text-anchor="end" transform="translate(-12,533)" class="amcharts-axis-label"><tspan y="8" x="0" style="font-size: 15.3482px;">-20,000</tspan></text><text y="8" fill="#e7e7e7" font-family="monospace" font-size="15.348225000000001" opacity="1" text-anchor="end" transform="translate(-12,456)" class="amcharts-axis-label"><tspan y="8" x="0" style="font-size: 15.3482px;">-10,000</tspan></text><text y="8" fill="#e7e7e7" font-family="monospace" font-size="15.348225000000001" opacity="1" text-anchor="end" transform="translate(-12,380)" class="amcharts-axis-label"><tspan y="8" x="0" style="font-size: 15.3482px;">      0</tspan></text><text y="8" fill="#e7e7e7" font-family="monospace" font-size="15.348225000000001" opacity="1" text-anchor="end" transform="translate(-12,304)" class="amcharts-axis-label"><tspan y="8" x="0" style="font-size: 15.3482px;"> 10,000</tspan></text><text y="8" fill="#e7e7e7" font-family="monospace" font-size="15.348225000000001" opacity="1" text-anchor="end" transform="translate(-12,227)" class="amcharts-axis-label"><tspan y="8" x="0" style="font-size: 15.3482px;"> 20,000</tspan></text><text y="8" fill="#e7e7e7" font-family="monospace" font-size="15.348225000000001" opacity="1" text-anchor="end" transform="translate(-12,151)" class="amcharts-axis-label"><tspan y="8" x="0" style="font-size: 15.3482px;"> 30,000</tspan></text><text y="8" fill="#e7e7e7" font-family="monospace" font-size="15.348225000000001" opacity="1" text-anchor="end" transform="translate(-12,74)" class="amcharts-axis-label"><tspan y="8" x="0" style="font-size: 15.3482px;"> 40,000</tspan></text><text y="8" fill="#e7e7e7" font-family="monospace" font-size="15.348225000000001" opacity="1" text-anchor="end" transform="translate(-12,-2)" class="amcharts-axis-label"><tspan y="8" x="0" style="font-size: 15.3482px;"> 50,000</tspan></text></g></g><g><g/></g><g/><g/><g/><clipPath id="AmChartsEl-14"><rect x="81" y="20" width="469" height="764" rx="0" ry="0" stroke-width="0"/></clipPath></svg>