<svg xmlns="http://www.w3.org/2000/svg" version="1.1" style="position: absolute; width: 571px; height: 532px; top: 0.15625px;"><desc>JavaScript chart by amCharts 3.14.1</desc><g><path cs="100,100" d="M0.5,0.5 L570.5,0.5 L570.5,531.5 L0.5,531.5 Z" fill="#000000" stroke="#000000" fill-opacity="0" stroke-width="1" stroke-opacity="0" class="amcharts-bg"/><path cs="100,100" d="M0.5,0.5 L469.5,0.5 L469.5,477.5 L0.5,477.5 L0.5,0.5 Z" fill="#FFFFFF" stroke="#000000" fill-opacity="0" stroke-width="1" stroke-opacity="0" class="amcharts-plot-area" transform="translate(81,20)"/></g><g><g class="amcharts-category-axis" transform="translate(81,20)"><g><path cs="100,100" d="M0.5,0.5 L0.5,5.5" fill="none" stroke-width="1" stroke-opacity="1" stroke="#FFFFFF" transform="translate(0,477)" class="amcharts-axis-tick"/><path cs="100,100" d="M0.5,477.5 L0.5,477.5 L0.5,0.5" fill="none" stroke-width="1" stroke-dasharray="3" stroke-opacity="0.5" stroke="#FFFFFF" class="amcharts-axis-grid"/></g><g><path cs="100,100" d="M95.5,0.5 L95.5,5.5" fill="none" stroke-width="1" stroke-opacity="1" stroke="#FFFFFF" transform="translate(0,477)" class="amcharts-axis-tick"/><path cs="100,100" d="M95.5,477.5 L95.5,477.5 L95.5,0.5" fill="none" stroke-width="1" stroke-dasharray="3" stroke-opacity="0.5" stroke="#FFFFFF" class="amcharts-axis-grid"/></g><g><path cs="100,100" d="M189.5,0.5 L189.5,5.5" fill="none" stroke-width="1" stroke-opacity="1" stroke="#FFFFFF" transform="translate(0,477)" class="amcharts-axis-tick"/><path cs="100,100" d="M189.5,477.5 L189.5,477.5 L189.5,0.5" fill="none" stroke-width="1" stroke-dasharray="3" stroke-opacity="0.5" stroke="#FFFFFF" class="amcharts-axis-grid"/></g><g><path cs="100,100" d="M284.5,0.5 L284.5,5.5" fill="none" stroke-width="1" stroke-opacity="1" stroke="#FFFFFF" transform="translate(0,477)" class="amcharts-axis-tick"/><path cs="100,100" d="M284.5,477.5 L284.5,477.5 L284.5,0.5" fill="none" stroke-width="1" stroke-dasharray="3" stroke-opacity="0.5" stroke="#FFFFFF" class="amcharts-axis-grid"/></g><g><path cs="100,100" d="M379.5,0.5 L379.5,5.5" fill="none" stroke-width="1" stroke-opacity="1" stroke="#FFFFFF" transform="translate(0,477)" class="amcharts-axis-tick"/><path cs="100,100" d="M379.5,477.5 L379.5,477.5 L379.5,0.5" fill="none" stroke-width="1" stroke-dasharray="3" stroke-opacity="0.5" stroke="#FFFFFF" class="amcharts-axis-grid"/></g></g><g class="amcharts-value-axis value-axis-v1" transform="translate(81,20)" visibility="visible"><g><path cs="100,100" d="M0.5,477.5 L5.5,477.5" fill="none" stroke-width="1" stroke-opacity="1" stroke="#FFFFFF" transform="translate(-6,0)" class="amcharts-axis-tick"/><path cs="100,100" d="M0.5,477.5 L0.5,477.5 L469.5,477.5" fill="none" stroke-width="1" stroke-dasharray="3" stroke-opacity="0.5" stroke="#FFFFFF" class="amcharts-axis-grid"/></g><g><path cs="100,100" d="M0.5,437.5 L5.5,437.5" fill="none" stroke-width="1" stroke-opacity="1" stroke="#FFFFFF" transform="translate(-6,0)" class="amcharts-axis-tick"/><path cs="100,100" d="M0.5,437.5 L0.5,437.5 L469.5,437.5" fill="none" stroke-width="1" stroke-dasharray="3" stroke-opacity="0.5" stroke="#FFFFFF" class="amcharts-axis-grid"/></g><g><path cs="100,100" d="M0.5,398.5 L5.5,398.5" fill="none" stroke-width="1" stroke-opacity="1" stroke="#FFFFFF" transform="translate(-6,0)" class="amcharts-axis-tick"/><path cs="100,100" d="M0.5,398.5 L0.5,398.5 L469.5,398.5" fill="none" stroke-width="1" stroke-dasharray="3" stroke-opacity="0.5" stroke="#FFFFFF" class="amcharts-axis-grid"/></g><g><path cs="100,100" d="M0.5,358.5 L5.5,358.5" fill="none" stroke-width="1" stroke-opacity="1" stroke="#FFFFFF" transform="translate(-6,0)" class="amcharts-axis-tick"/><path cs="100,100" d="M0.5,358.5 L0.5,358.5 L469.5,358.5" fill="none" stroke-width="1" stroke-dasharray="3" stroke-opacity="0.5" stroke="#FFFFFF" class="amcharts-axis-grid"/></g><g><path cs="100,100" d="M0.5,318.5 L5.5,318.5" fill="none" stroke-width="1" stroke-opacity="1" stroke="#FFFFFF" transform="translate(-6,0)" class="amcharts-axis-tick"/><path cs="100,100" d="M0.5,318.5 L0.5,318.5 L469.5,318.5" fill="none" stroke-width="1" stroke-dasharray="3" stroke-opacity="0.5" stroke="#FFFFFF" class="amcharts-axis-grid"/></g><g><path cs="100,100" d="M0.5,278.5 L5.5,278.5" fill="none" stroke-width="1" stroke-opacity="1" stroke="#FFFFFF" transform="translate(-6,0)" class="amcharts-axis-tick"/><path cs="100,100" d="M0.5,278.5 L0.5,278.5 L469.5,278.5" fill="none" stroke-width="1" stroke-dasharray="3" stroke-opacity="0.5" stroke="#FFFFFF" class="amcharts-axis-grid"/></g><g><path cs="100,100" d="M0.5,239.5 L5.5,239.5" fill="none" stroke-width="1" stroke-opacity="1" stroke="#FFFFFF" transform="translate(-6,0)" class="amcharts-axis-tick"/><path cs="100,100" d="M0.5,239.5 L0.5,239.5 L469.5,239.5" fill="none" stroke-width="1" stroke-dasharray="3" stroke-opacity="0.5" stroke="#FFFFFF" class="amcharts-axis-grid"/></g><g><path cs="100,100" d="M0.5,199.5 L5.5,199.5" fill="none" stroke-width="1" stroke-opacity="1" stroke="#FFFFFF" transform="translate(-6,0)" class="amcharts-axis-tick"/><path cs="100,100" d="M0.5,199.5 L0.5,199.5 L469.5,199.5" fill="none" stroke-width="1" stroke-dasharray="3" stroke-opacity="0.5" stroke="#FFFFFF" class="amcharts-axis-grid"/></g><g><path cs="100,100" d="M0.5,159.5 L5.5,159.5" fill="none" stroke-width="1" stroke-opacity="1" stroke="#FFFFFF" transform="translate(-6,0)" class="amcharts-axis-tick"/><path cs="100,100" d="M0.5,159.5 L0.5,159.5 L469.5,159.5" fill="none" stroke-width="1" stroke-dasharray="3" stroke-opacity="0.5" stroke="#FFFFFF" class="amcharts-axis-grid"/></g><g><path cs="100,100" d="M0.5,119.5 L5.5,119.5" fill="none" stroke-width="1" stroke-opacity="1" stroke="#FFFFFF" transform="translate(-6,0)" class="amcharts-axis-tick"/><path cs="100,100" d="M0.5,119.5 L0.5,119.5 L469.5,119.5" fill="none" stroke-width="1" stroke-dasharray="3" stroke-opacity="0.5" stroke="#FFFFFF" class="amcharts-axis-grid"/></g><g><path cs="100,100" d="M0.5,80.5 L5.5,80.5" fill="none" stroke-width="1" stroke-opacity="1" stroke="#FFFFFF" transform="translate(-6,0)" class="amcharts-axis-tick"/><path cs="100,100" d="M0.5,80.5 L0.5,80.5 L469.5,80.5" fill="none" stroke-width="1" stroke-dasharray="3" stroke-opacity="0.5" stroke="#FFFFFF" class="amcharts-axis-grid"/></g><g><path cs="100,100" d="M0.5,40.5 L5.5,40.5" fill="none" stroke-width="1" stroke-opacity="1" stroke="#FFFFFF" transform="translate(-6,0)" class="amcharts-axis-tick"/><path cs="100,100" d="M0.5,40.5 L0.5,40.5 L469.5,40.5" fill="none" stroke-width="1" stroke-dasharray="3" stroke-opacity="0.5" stroke="#FFFFFF" class="amcharts-axis-grid"/></g><g><path cs="100,100" d="M0.5,0.5 L5.5,0.5" fill="none" stroke-width="1" stroke-opacity="1" stroke="#FFFFFF" transform="translate(-6,0)" class="amcharts-axis-tick"/><path cs="100,100" d="M0.5,0.5 L0.5,0.5 L469.5,0.5" fill="none" stroke-width="1" stroke-dasharray="3" stroke-opacity="0.5" stroke="#FFFFFF" class="amcharts-axis-grid"/></g></g></g><g/><g/><g/><g/><g><g transform="translate(81,20)" class="amcharts-graph-line amcharts-graph-g1"><g/><g/><g clip-path="url(#AmChartsEl-13)"><path cs="100,100" d="M0.5,239.5 L6.5,239.5 L11.5,239.5 L16.5,239.5 L21.5,239.5 L27.5,239.5 L32.5,239.5 L37.5,239.5 L42.5,239.5 L48.5,239.5 L53.5,239.5 L58.5,239.5 L63.5,239.5 L69.5,239.5 L74.5,239.5 L79.5,239.5 L84.5,239.5 L90.5,239.5 L95.5,239.5 L100.5,239.5 L106.5,239.5 L111.5,239.5 L116.5,239.5 L121.5,241.5 L153.5,243.5 L163.5,211.5 L174.5,201.5 L184.5,161.5 L195.5,141.5 L237.5,153.5 L248.5,166.5 L258.5,176.5 L269.5,167.5 L279.5,147.5 L290.5,150.5 L300.5,142.5 L311.5,107.5 L321.5,117.5 L332.5,75.5 L342.5,83.5 L395.5,90.5 L453.5,90.5 M0,0 L0,0" fill="none" stroke-width="3" stroke-opacity="1" stroke="#ffff00" class="amcharts-graph-stroke"/></g><clipPath id="AmChartsEl-13"><rect x="0" y="0" width="471" height="479" rx="0" ry="0" stroke-width="0"/></clipPath></g></g><g clip-path="url(#AmChartsEl-12)"/><g><path cs="100,100" d="M0.5,239.5 L469.5,239.5 L469.5,239.5" fill="none" stroke-width="1" stroke-dasharray="3" stroke-opacity="1" stroke="#FFFFFF" transform="translate(81,20)" class="amcharts-axis-zero-grid-v1 amcharts-axis-zero-grid"/><g class="amcharts-category-axis"><path cs="100,100" d="M0.5,0.5 L469.5,0.5" fill="none" stroke-width="1" stroke-opacity="1" stroke="#FFFFFF" transform="translate(81,497)" class="amcharts-axis-line"/></g><g class="amcharts-value-axis value-axis-v1"><path cs="100,100" d="M0.5,0.5 L0.5,477.5" fill="none" stroke-width="1" stroke-opacity="1" stroke="#FFFFFF" transform="translate(81,20)" class="amcharts-axis-line" visibility="visible"/></g></g><g><g transform="translate(81,20)" visibility="hidden"><path cs="100,100" d="M0.5,0.5 L0.5,0.5 L0.5,477.5" fill="none" stroke-width="1" stroke-opacity="1" stroke="#FFFFFF" class="amcharts-cursor-line" visibility="hidden"/><path cs="100,100" d="M0.5,0.5 L469.5,0.5 L469.5,0.5" fill="none" stroke-width="1" stroke-opacity="1" stroke="#FFFFFF" class="amcharts-cursor-value-line" visibility="hidden"/></g></g><g/><g><g transform="translate(81,20)" class="amcharts-graph-line amcharts-graph-g1"><circle r="4" cx="0" cy="0" fill="#ffff00" stroke="#ffff00" fill-opacity="0" stroke-width="2" stroke-opacity="0" transform="translate(0,239)" class="amcharts-graph-bullet"/><circle r="4" cx="0" cy="0" fill="#ffff00" stroke="#ffff00" fill-opacity="0" stroke-width="2" stroke-opacity="0" transform="translate(6,239)" class="amcharts-graph-bullet"/><circle r="4" cx="0" cy="0" fill="#ffff00" stroke="#ffff00" fill-opacity="0" stroke-width="2" stroke-opacity="0" transform="translate(11,239)" class="amcharts-graph-bullet"/><circle r="4" cx="0" cy="0" fill="#ffff00" stroke="#ffff00" fill-opacity="0" stroke-width="2" stroke-opacity="0" transform="translate(16,239)" class="amcharts-graph-bullet"/><circle r="4" cx="0" cy="0" fill="#ffff00" stroke="#ffff00" fill-opacity="0" stroke-width="2" stroke-opacity="0" transform="translate(21,239)" class="amcharts-graph-bullet"/><circle r="4" cx="0" cy="0" fill="#ffff00" stroke="#ffff00" fill-opacity="0" stroke-width="2" stroke-opacity="0" transform="translate(27,239)" class="amcharts-graph-bullet"/><circle r="4" cx="0" cy="0" fill="#ffff00" stroke="#ffff00" fill-opacity="0" stroke-width="2" stroke-opacity="0" transform="translate(32,239)" class="amcharts-graph-bullet"/><circle r="4" cx="0" cy="0" fill="#ffff00" stroke="#ffff00" fill-opacity="0" stroke-width="2" stroke-opacity="0" transform="translate(37,239)" class="amcharts-graph-bullet"/><circle r="4" cx="0" cy="0" fill="#ffff00" stroke="#ffff00" fill-opacity="0" stroke-width="2" stroke-opacity="0" transform="translate(42,239)" class="amcharts-graph-bullet"/><circle r="4" cx="0" cy="0" fill="#ffff00" stroke="#ffff00" fill-opacity="0" stroke-width="2" stroke-opacity="0" transform="translate(48,239)" class="amcharts-graph-bullet"/><circle r="4" cx="0" cy="0" fill="#ffff00" stroke="#ffff00" fill-opacity="0" stroke-width="2" stroke-opacity="0" transform="translate(53,239)" class="amcharts-graph-bullet"/><circle r="4" cx="0" cy="0" fill="#ffff00" stroke="#ffff00" fill-opacity="0" stroke-width="2" stroke-opacity="0" transform="translate(58,239)" class="amcharts-graph-bullet"/><circle r="4" cx="0" cy="0" fill="#ffff00" stroke="#ffff00" fill-opacity="0" stroke-width="2" stroke-opacity="0" transform="translate(63,239)" class="amcharts-graph-bullet"/><circle r="4" cx="0" cy="0" fill="#ffff00" stroke="#ffff00" fill-opacity="0" stroke-width="2" stroke-opacity="0" transform="translate(69,239)" class="amcharts-graph-bullet"/><circle r="4" cx="0" cy="0" fill="#ffff00" stroke="#ffff00" fill-opacity="0" stroke-width="2" stroke-opacity="0" transform="translate(74,239)" class="amcharts-graph-bullet"/><circle r="4" cx="0" cy="0" fill="#ffff00" stroke="#ffff00" fill-opacity="0" stroke-width="2" stroke-opacity="0" transform="translate(79,239)" class="amcharts-graph-bullet"/><circle r="4" cx="0" cy="0" fill="#ffff00" stroke="#ffff00" fill-opacity="0" stroke-width="2" stroke-opacity="0" transform="translate(84,239)" class="amcharts-graph-bullet"/><circle r="4" cx="0" cy="0" fill="#ffff00" stroke="#ffff00" fill-opacity="0" stroke-width="2" stroke-opacity="0" transform="translate(90,239)" class="amcharts-graph-bullet"/><circle r="4" cx="0" cy="0" fill="#ffff00" stroke="#ffff00" fill-opacity="0" stroke-width="2" stroke-opacity="0" transform="translate(95,239)" class="amcharts-graph-bullet"/><circle r="4" cx="0" cy="0" fill="#ffff00" stroke="#ffff00" fill-opacity="0" stroke-width="2" stroke-opacity="0" transform="translate(100,239)" class="amcharts-graph-bullet"/><circle r="4" cx="0" cy="0" fill="#ffff00" stroke="#ffff00" fill-opacity="0" stroke-width="2" stroke-opacity="0" transform="translate(106,239)" class="amcharts-graph-bullet"/><circle r="4" cx="0" cy="0" fill="#ffff00" stroke="#ffff00" fill-opacity="0" stroke-width="2" stroke-opacity="0" transform="translate(111,239)" class="amcharts-graph-bullet"/><circle r="4" cx="0" cy="0" fill="#ffff00" stroke="#ffff00" fill-opacity="0" stroke-width="2" stroke-opacity="0" transform="translate(116,239)" class="amcharts-graph-bullet"/><circle r="4" cx="0" cy="0" fill="#ffff00" stroke="#ffff00" fill-opacity="0" stroke-width="2" stroke-opacity="0" transform="translate(121,241)" class="amcharts-graph-bullet"/><circle r="4" cx="0" cy="0" fill="#ffff00" stroke="#ffff00" fill-opacity="0" stroke-width="2" stroke-opacity="0" transform="translate(153,243)" class="amcharts-graph-bullet"/><circle r="4" cx="0" cy="0" fill="#ffff00" stroke="#ffff00" fill-opacity="0" stroke-width="2" stroke-opacity="0" transform="translate(163,211)" class="amcharts-graph-bullet"/><circle r="4" cx="0" cy="0" fill="#ffff00" stroke="#ffff00" fill-opacity="0" stroke-width="2" stroke-opacity="0" transform="translate(174,201)" class="amcharts-graph-bullet"/><circle r="4" cx="0" cy="0" fill="#ffff00" stroke="#ffff00" fill-opacity="0" stroke-width="2" stroke-opacity="0" transform="translate(184,161)" class="amcharts-graph-bullet"/><circle r="4" cx="0" cy="0" fill="#ffff00" stroke="#ffff00" fill-opacity="0" stroke-width="2" stroke-opacity="0" transform="translate(195,141)" class="amcharts-graph-bullet"/><circle r="4" cx="0" cy="0" fill="#ffff00" stroke="#ffff00" fill-opacity="0" stroke-width="2" stroke-opacity="0" transform="translate(237,153)" class="amcharts-graph-bullet"/><circle r="4" cx="0" cy="0" fill="#ffff00" stroke="#ffff00" fill-opacity="0" stroke-width="2" stroke-opacity="0" transform="translate(248,166)" class="amcharts-graph-bullet"/><circle r="4" cx="0" cy="0" fill="#ffff00" stroke="#ffff00" fill-opacity="0" stroke-width="2" stroke-opacity="0" transform="translate(258,176)" class="amcharts-graph-bullet"/><circle r="4" cx="0" cy="0" fill="#ffff00" stroke="#ffff00" fill-opacity="0" stroke-width="2" stroke-opacity="0" transform="translate(269,167)" class="amcharts-graph-bullet"/><circle r="4" cx="0" cy="0" fill="#ffff00" stroke="#ffff00" fill-opacity="0" stroke-width="2" stroke-opacity="0" transform="translate(279,147)" class="amcharts-graph-bullet"/><circle r="4" cx="0" cy="0" fill="#ffff00" stroke="#ffff00" fill-opacity="0" stroke-width="2" stroke-opacity="0" transform="translate(290,150)" class="amcharts-graph-bullet"/><circle r="4" cx="0" cy="0" fill="#ffff00" stroke="#ffff00" fill-opacity="0" stroke-width="2" stroke-opacity="0" transform="translate(300,142)" class="amcharts-graph-bullet"/><circle r="4" cx="0" cy="0" fill="#ffff00" stroke="#ffff00" fill-opacity="0" stroke-width="2" stroke-opacity="0" transform="translate(311,107)" class="amcharts-graph-bullet"/><circle r="4" cx="0" cy="0" fill="#ffff00" stroke="#ffff00" fill-opacity="0" stroke-width="2" stroke-opacity="0" transform="translate(321,117)" class="amcharts-graph-bullet"/><circle r="4" cx="0" cy="0" fill="#ffff00" stroke="#ffff00" fill-opacity="0" stroke-width="2" stroke-opacity="0" transform="translate(332,75)" class="amcharts-graph-bullet"/><circle r="4" cx="0" cy="0" fill="#ffff00" stroke="#ffff00" fill-opacity="0" stroke-width="2" stroke-opacity="0" transform="translate(342,83)" class="amcharts-graph-bullet"/><circle r="4" cx="0" cy="0" fill="#ffff00" stroke="#ffff00" fill-opacity="0" stroke-width="2" stroke-opacity="0" transform="translate(395,90)" class="amcharts-graph-bullet"/><circle r="4" cx="0" cy="0" fill="transparent" stroke="transparent" fill-opacity="0" stroke-width="2" stroke-opacity="0" transform="translate(453,90)" class="amcharts-graph-bullet"/></g></g><g><g class="amcharts-category-axis" transform="translate(81,20)"><text y="8" fill="#e7e7e7" font-family="monospace" font-size="15.348225000000001" opacity="1" text-anchor="start" transform="translate(3,492)" class="amcharts-axis-label"><tspan y="8" x="0" style="font-size: 15.3482px;">09:00</tspan></text><text y="8" fill="#e7e7e7" font-family="monospace" font-size="15.348225000000001" opacity="1" text-anchor="start" transform="translate(98,492)" class="amcharts-axis-label"><tspan y="8" x="0" style="font-size: 15.3482px;">12:00</tspan></text><text y="8" fill="#e7e7e7" font-family="monospace" font-size="15.348225000000001" opacity="1" text-anchor="start" transform="translate(192,492)" class="amcharts-axis-label"><tspan y="8" x="0" style="font-size: 15.3482px;">15:00</tspan></text><text y="8" fill="#e7e7e7" font-family="monospace" font-size="15.348225000000001" opacity="1" text-anchor="start" transform="translate(287,492)" class="amcharts-axis-label"><tspan y="8" x="0" style="font-size: 15.3482px;">18:00</tspan></text><text y="8" fill="#e7e7e7" font-family="monospace" font-size="15.348225000000001" opacity="1" text-anchor="start" transform="translate(382,492)" class="amcharts-axis-label"><tspan y="8" x="0" style="font-size: 15.3482px;">21:00</tspan></text></g><g class="amcharts-value-axis value-axis-v1" transform="translate(81,20)" visibility="visible"><text y="8" fill="#e7e7e7" font-family="monospace" font-size="15.348225000000001" opacity="1" text-anchor="end" transform="translate(-12,475)" class="amcharts-axis-label"><tspan y="8" x="0" style="font-size: 15.3482px;">-30,000</tspan></text><text y="8" fill="#e7e7e7" font-family="monospace" font-size="15.348225000000001" opacity="1" text-anchor="end" transform="translate(-12,435)" class="amcharts-axis-label"><tspan y="8" x="0" style="font-size: 15.3482px;">-25,000</tspan></text><text y="8" fill="#e7e7e7" font-family="monospace" font-size="15.348225000000001" opacity="1" text-anchor="end" transform="translate(-12,396)" class="amcharts-axis-label"><tspan y="8" x="0" style="font-size: 15.3482px;">-20,000</tspan></text><text y="8" fill="#e7e7e7" font-family="monospace" font-size="15.348225000000001" opacity="1" text-anchor="end" transform="translate(-12,356)" class="amcharts-axis-label"><tspan y="8" x="0" style="font-size: 15.3482px;">-15,000</tspan></text><text y="8" fill="#e7e7e7" font-family="monospace" font-size="15.348225000000001" opacity="1" text-anchor="end" transform="translate(-12,316)" class="amcharts-axis-label"><tspan y="8" x="0" style="font-size: 15.3482px;">-10,000</tspan></text><text y="8" fill="#e7e7e7" font-family="monospace" font-size="15.348225000000001" opacity="1" text-anchor="end" transform="translate(-12,276)" class="amcharts-axis-label"><tspan y="8" x="0" style="font-size: 15.3482px;"> -5,000</tspan></text><text y="8" fill="#e7e7e7" font-family="monospace" font-size="15.348225000000001" opacity="1" text-anchor="end" transform="translate(-12,237)" class="amcharts-axis-label"><tspan y="8" x="0" style="font-size: 15.3482px;">      0</tspan></text><text y="8" fill="#e7e7e7" font-family="monospace" font-size="15.348225000000001" opacity="1" text-anchor="end" transform="translate(-12,197)" class="amcharts-axis-label"><tspan y="8" x="0" style="font-size: 15.3482px;">  5,000</tspan></text><text y="8" fill="#e7e7e7" font-family="monospace" font-size="15.348225000000001" opacity="1" text-anchor="end" transform="translate(-12,157)" class="amcharts-axis-label"><tspan y="8" x="0" style="font-size: 15.3482px;"> 10,000</tspan></text><text y="8" fill="#e7e7e7" font-family="monospace" font-size="15.348225000000001" opacity="1" text-anchor="end" transform="translate(-12,117)" class="amcharts-axis-label"><tspan y="8" x="0" style="font-size: 15.3482px;"> 15,000</tspan></text><text y="8" fill="#e7e7e7" font-family="monospace" font-size="15.348225000000001" opacity="1" text-anchor="end" transform="translate(-12,78)" class="amcharts-axis-label"><tspan y="8" x="0" style="font-size: 15.3482px;"> 20,000</tspan></text><text y="8" fill="#e7e7e7" font-family="monospace" font-size="15.348225000000001" opacity="1" text-anchor="end" transform="translate(-12,38)" class="amcharts-axis-label"><tspan y="8" x="0" style="font-size: 15.3482px;"> 25,000</tspan></text><text y="8" fill="#e7e7e7" font-family="monospace" font-size="15.348225000000001" opacity="1" text-anchor="end" transform="translate(-12,-2)" class="amcharts-axis-label"><tspan y="8" x="0" style="font-size: 15.3482px;"> 30,000</tspan></text></g></g><g><g/></g><g/><g/><g/><clipPath id="AmChartsEl-12"><rect x="81" y="20" width="469" height="477" rx="0" ry="0" stroke-width="0"/></clipPath></svg>