<svg xmlns="http://www.w3.org/2000/svg" version="1.1" style="position: absolute; width: 571px; height: 675px; top: 0.15625px;"><desc>JavaScript chart by amCharts 3.14.1</desc><g><path cs="100,100" d="M0.5,0.5 L570.5,0.5 L570.5,674.5 L0.5,674.5 Z" fill="#000000" stroke="#000000" fill-opacity="0" stroke-width="1" stroke-opacity="0" class="amcharts-bg"/><path cs="100,100" d="M0.5,0.5 L469.5,0.5 L469.5,620.5 L0.5,620.5 L0.5,0.5 Z" fill="#FFFFFF" stroke="#000000" fill-opacity="0" stroke-width="1" stroke-opacity="0" class="amcharts-plot-area" transform="translate(81,20)"/></g><g><g class="amcharts-category-axis" transform="translate(81,20)"><g><path cs="100,100" d="M0.5,0.5 L0.5,5.5" fill="none" stroke-width="1" stroke-opacity="1" stroke="#FFFFFF" transform="translate(0,620)" class="amcharts-axis-tick"/><path cs="100,100" d="M0.5,620.5 L0.5,620.5 L0.5,0.5" fill="none" stroke-width="1" stroke-dasharray="3" stroke-opacity="0.5" stroke="#FFFFFF" class="amcharts-axis-grid"/></g><g><path cs="100,100" d="M95.5,0.5 L95.5,5.5" fill="none" stroke-width="1" stroke-opacity="1" stroke="#FFFFFF" transform="translate(0,620)" class="amcharts-axis-tick"/><path cs="100,100" d="M95.5,620.5 L95.5,620.5 L95.5,0.5" fill="none" stroke-width="1" stroke-dasharray="3" stroke-opacity="0.5" stroke="#FFFFFF" class="amcharts-axis-grid"/></g><g><path cs="100,100" d="M189.5,0.5 L189.5,5.5" fill="none" stroke-width="1" stroke-opacity="1" stroke="#FFFFFF" transform="translate(0,620)" class="amcharts-axis-tick"/><path cs="100,100" d="M189.5,620.5 L189.5,620.5 L189.5,0.5" fill="none" stroke-width="1" stroke-dasharray="3" stroke-opacity="0.5" stroke="#FFFFFF" class="amcharts-axis-grid"/></g><g><path cs="100,100" d="M284.5,0.5 L284.5,5.5" fill="none" stroke-width="1" stroke-opacity="1" stroke="#FFFFFF" transform="translate(0,620)" class="amcharts-axis-tick"/><path cs="100,100" d="M284.5,620.5 L284.5,620.5 L284.5,0.5" fill="none" stroke-width="1" stroke-dasharray="3" stroke-opacity="0.5" stroke="#FFFFFF" class="amcharts-axis-grid"/></g><g><path cs="100,100" d="M379.5,0.5 L379.5,5.5" fill="none" stroke-width="1" stroke-opacity="1" stroke="#FFFFFF" transform="translate(0,620)" class="amcharts-axis-tick"/><path cs="100,100" d="M379.5,620.5 L379.5,620.5 L379.5,0.5" fill="none" stroke-width="1" stroke-dasharray="3" stroke-opacity="0.5" stroke="#FFFFFF" class="amcharts-axis-grid"/></g></g><g class="amcharts-value-axis value-axis-v1" transform="translate(81,20)" visibility="visible"><g><path cs="100,100" d="M0.5,620.5 L5.5,620.5" fill="none" stroke-width="1" stroke-opacity="1" stroke="#FFFFFF" transform="translate(-6,0)" class="amcharts-axis-tick"/><path cs="100,100" d="M0.5,620.5 L0.5,620.5 L469.5,620.5" fill="none" stroke-width="1" stroke-dasharray="3" stroke-opacity="0.5" stroke="#FFFFFF" class="amcharts-axis-grid"/></g><g><path cs="100,100" d="M0.5,581.5 L5.5,581.5" fill="none" stroke-width="1" stroke-opacity="1" stroke="#FFFFFF" transform="translate(-6,0)" class="amcharts-axis-tick"/><path cs="100,100" d="M0.5,581.5 L0.5,581.5 L469.5,581.5" fill="none" stroke-width="1" stroke-dasharray="3" stroke-opacity="0.5" stroke="#FFFFFF" class="amcharts-axis-grid"/></g><g><path cs="100,100" d="M0.5,543.5 L5.5,543.5" fill="none" stroke-width="1" stroke-opacity="1" stroke="#FFFFFF" transform="translate(-6,0)" class="amcharts-axis-tick"/><path cs="100,100" d="M0.5,543.5 L0.5,543.5 L469.5,543.5" fill="none" stroke-width="1" stroke-dasharray="3" stroke-opacity="0.5" stroke="#FFFFFF" class="amcharts-axis-grid"/></g><g><path cs="100,100" d="M0.5,504.5 L5.5,504.5" fill="none" stroke-width="1" stroke-opacity="1" stroke="#FFFFFF" transform="translate(-6,0)" class="amcharts-axis-tick"/><path cs="100,100" d="M0.5,504.5 L0.5,504.5 L469.5,504.5" fill="none" stroke-width="1" stroke-dasharray="3" stroke-opacity="0.5" stroke="#FFFFFF" class="amcharts-axis-grid"/></g><g><path cs="100,100" d="M0.5,465.5 L5.5,465.5" fill="none" stroke-width="1" stroke-opacity="1" stroke="#FFFFFF" transform="translate(-6,0)" class="amcharts-axis-tick"/><path cs="100,100" d="M0.5,465.5 L0.5,465.5 L469.5,465.5" fill="none" stroke-width="1" stroke-dasharray="3" stroke-opacity="0.5" stroke="#FFFFFF" class="amcharts-axis-grid"/></g><g><path cs="100,100" d="M0.5,426.5 L5.5,426.5" fill="none" stroke-width="1" stroke-opacity="1" stroke="#FFFFFF" transform="translate(-6,0)" class="amcharts-axis-tick"/><path cs="100,100" d="M0.5,426.5 L0.5,426.5 L469.5,426.5" fill="none" stroke-width="1" stroke-dasharray="3" stroke-opacity="0.5" stroke="#FFFFFF" class="amcharts-axis-grid"/></g><g><path cs="100,100" d="M0.5,388.5 L5.5,388.5" fill="none" stroke-width="1" stroke-opacity="1" stroke="#FFFFFF" transform="translate(-6,0)" class="amcharts-axis-tick"/><path cs="100,100" d="M0.5,388.5 L0.5,388.5 L469.5,388.5" fill="none" stroke-width="1" stroke-dasharray="3" stroke-opacity="0.5" stroke="#FFFFFF" class="amcharts-axis-grid"/></g><g><path cs="100,100" d="M0.5,349.5 L5.5,349.5" fill="none" stroke-width="1" stroke-opacity="1" stroke="#FFFFFF" transform="translate(-6,0)" class="amcharts-axis-tick"/><path cs="100,100" d="M0.5,349.5 L0.5,349.5 L469.5,349.5" fill="none" stroke-width="1" stroke-dasharray="3" stroke-opacity="0.5" stroke="#FFFFFF" class="amcharts-axis-grid"/></g><g><path cs="100,100" d="M0.5,310.5 L5.5,310.5" fill="none" stroke-width="1" stroke-opacity="1" stroke="#FFFFFF" transform="translate(-6,0)" class="amcharts-axis-tick"/><path cs="100,100" d="M0.5,310.5 L0.5,310.5 L469.5,310.5" fill="none" stroke-width="1" stroke-dasharray="3" stroke-opacity="0.5" stroke="#FFFFFF" class="amcharts-axis-grid"/></g><g><path cs="100,100" d="M0.5,271.5 L5.5,271.5" fill="none" stroke-width="1" stroke-opacity="1" stroke="#FFFFFF" transform="translate(-6,0)" class="amcharts-axis-tick"/><path cs="100,100" d="M0.5,271.5 L0.5,271.5 L469.5,271.5" fill="none" stroke-width="1" stroke-dasharray="3" stroke-opacity="0.5" stroke="#FFFFFF" class="amcharts-axis-grid"/></g><g><path cs="100,100" d="M0.5,233.5 L5.5,233.5" fill="none" stroke-width="1" stroke-opacity="1" stroke="#FFFFFF" transform="translate(-6,0)" class="amcharts-axis-tick"/><path cs="100,100" d="M0.5,233.5 L0.5,233.5 L469.5,233.5" fill="none" stroke-width="1" stroke-dasharray="3" stroke-opacity="0.5" stroke="#FFFFFF" class="amcharts-axis-grid"/></g><g><path cs="100,100" d="M0.5,194.5 L5.5,194.5" fill="none" stroke-width="1" stroke-opacity="1" stroke="#FFFFFF" transform="translate(-6,0)" class="amcharts-axis-tick"/><path cs="100,100" d="M0.5,194.5 L0.5,194.5 L469.5,194.5" fill="none" stroke-width="1" stroke-dasharray="3" stroke-opacity="0.5" stroke="#FFFFFF" class="amcharts-axis-grid"/></g><g><path cs="100,100" d="M0.5,155.5 L5.5,155.5" fill="none" stroke-width="1" stroke-opacity="1" stroke="#FFFFFF" transform="translate(-6,0)" class="amcharts-axis-tick"/><path cs="100,100" d="M0.5,155.5 L0.5,155.5 L469.5,155.5" fill="none" stroke-width="1" stroke-dasharray="3" stroke-opacity="0.5" stroke="#FFFFFF" class="amcharts-axis-grid"/></g><g><path cs="100,100" d="M0.5,116.5 L5.5,116.5" fill="none" stroke-width="1" stroke-opacity="1" stroke="#FFFFFF" transform="translate(-6,0)" class="amcharts-axis-tick"/><path cs="100,100" d="M0.5,116.5 L0.5,116.5 L469.5,116.5" fill="none" stroke-width="1" stroke-dasharray="3" stroke-opacity="0.5" stroke="#FFFFFF" class="amcharts-axis-grid"/></g><g><path cs="100,100" d="M0.5,78.5 L5.5,78.5" fill="none" stroke-width="1" stroke-opacity="1" stroke="#FFFFFF" transform="translate(-6,0)" class="amcharts-axis-tick"/><path cs="100,100" d="M0.5,78.5 L0.5,78.5 L469.5,78.5" fill="none" stroke-width="1" stroke-dasharray="3" stroke-opacity="0.5" stroke="#FFFFFF" class="amcharts-axis-grid"/></g><g><path cs="100,100" d="M0.5,39.5 L5.5,39.5" fill="none" stroke-width="1" stroke-opacity="1" stroke="#FFFFFF" transform="translate(-6,0)" class="amcharts-axis-tick"/><path cs="100,100" d="M0.5,39.5 L0.5,39.5 L469.5,39.5" fill="none" stroke-width="1" stroke-dasharray="3" stroke-opacity="0.5" stroke="#FFFFFF" class="amcharts-axis-grid"/></g><g><path cs="100,100" d="M0.5,0.5 L5.5,0.5" fill="none" stroke-width="1" stroke-opacity="1" stroke="#FFFFFF" transform="translate(-6,0)" class="amcharts-axis-tick"/><path cs="100,100" d="M0.5,0.5 L0.5,0.5 L469.5,0.5" fill="none" stroke-width="1" stroke-dasharray="3" stroke-opacity="0.5" stroke="#FFFFFF" class="amcharts-axis-grid"/></g></g></g><g/><g/><g/><g/><g><g transform="translate(81,20)" class="amcharts-graph-line amcharts-graph-g1"><g/><g/><g clip-path="url(#AmChartsEl-15)"><path cs="100,100" d="M0.5,310.5 L6.5,310.5 L11.5,310.5 L16.5,310.5 L21.5,310.5 L27.5,310.5 L32.5,310.5 L37.5,310.5 L42.5,310.5 L48.5,318.5 L53.5,321.5 L290.5,322.5 L300.5,324.5 L321.5,328.5 L332.5,324.5 L342.5,326.5 L363.5,242.5 L374.5,124.5 L385.5,107.5 L395.5,121.5 L406.5,132.5 L416.5,143.5 L427.5,70.5 L453.5,70.5 M0,0 L0,0" fill="none" stroke-width="3" stroke-opacity="1" stroke="#afdfe4" class="amcharts-graph-stroke"/></g><clipPath id="AmChartsEl-15"><rect x="0" y="0" width="471" height="622" rx="0" ry="0" stroke-width="0"/></clipPath></g></g><g clip-path="url(#AmChartsEl-14)"/><g><path cs="100,100" d="M0.5,310.5 L469.5,310.5 L469.5,310.5" fill="none" stroke-width="1" stroke-dasharray="3" stroke-opacity="1" stroke="#FFFFFF" transform="translate(81,20)" class="amcharts-axis-zero-grid-v1 amcharts-axis-zero-grid"/><g class="amcharts-category-axis"><path cs="100,100" d="M0.5,0.5 L469.5,0.5" fill="none" stroke-width="1" stroke-opacity="1" stroke="#FFFFFF" transform="translate(81,640)" class="amcharts-axis-line"/></g><g class="amcharts-value-axis value-axis-v1"><path cs="100,100" d="M0.5,0.5 L0.5,620.5" fill="none" stroke-width="1" stroke-opacity="1" stroke="#FFFFFF" transform="translate(81,20)" class="amcharts-axis-line" visibility="visible"/></g></g><g><g transform="translate(81,20)" visibility="hidden"><path cs="100,100" d="M0.5,0.5 L0.5,0.5 L0.5,620.5" fill="none" stroke-width="1" stroke-opacity="1" stroke="#FFFFFF" class="amcharts-cursor-line" visibility="hidden"/><path cs="100,100" d="M0.5,0.5 L469.5,0.5 L469.5,0.5" fill="none" stroke-width="1" stroke-opacity="1" stroke="#FFFFFF" class="amcharts-cursor-value-line" visibility="hidden"/></g></g><g/><g><g transform="translate(81,20)" class="amcharts-graph-line amcharts-graph-g1"><circle r="4" cx="0" cy="0" fill="#afdfe4" stroke="#afdfe4" fill-opacity="0" stroke-width="2" stroke-opacity="0" transform="translate(0,310)" class="amcharts-graph-bullet"/><circle r="4" cx="0" cy="0" fill="#afdfe4" stroke="#afdfe4" fill-opacity="0" stroke-width="2" stroke-opacity="0" transform="translate(6,310)" class="amcharts-graph-bullet"/><circle r="4" cx="0" cy="0" fill="#afdfe4" stroke="#afdfe4" fill-opacity="0" stroke-width="2" stroke-opacity="0" transform="translate(11,310)" class="amcharts-graph-bullet"/><circle r="4" cx="0" cy="0" fill="#afdfe4" stroke="#afdfe4" fill-opacity="0" stroke-width="2" stroke-opacity="0" transform="translate(16,310)" class="amcharts-graph-bullet"/><circle r="4" cx="0" cy="0" fill="#afdfe4" stroke="#afdfe4" fill-opacity="0" stroke-width="2" stroke-opacity="0" transform="translate(21,310)" class="amcharts-graph-bullet"/><circle r="4" cx="0" cy="0" fill="#afdfe4" stroke="#afdfe4" fill-opacity="0" stroke-width="2" stroke-opacity="0" transform="translate(27,310)" class="amcharts-graph-bullet"/><circle r="4" cx="0" cy="0" fill="#afdfe4" stroke="#afdfe4" fill-opacity="0" stroke-width="2" stroke-opacity="0" transform="translate(32,310)" class="amcharts-graph-bullet"/><circle r="4" cx="0" cy="0" fill="#afdfe4" stroke="#afdfe4" fill-opacity="0" stroke-width="2" stroke-opacity="0" transform="translate(37,310)" class="amcharts-graph-bullet"/><circle r="4" cx="0" cy="0" fill="#afdfe4" stroke="#afdfe4" fill-opacity="0" stroke-width="2" stroke-opacity="0" transform="translate(42,310)" class="amcharts-graph-bullet"/><circle r="4" cx="0" cy="0" fill="#afdfe4" stroke="#afdfe4" fill-opacity="0" stroke-width="2" stroke-opacity="0" transform="translate(48,318)" class="amcharts-graph-bullet"/><circle r="4" cx="0" cy="0" fill="#afdfe4" stroke="#afdfe4" fill-opacity="0" stroke-width="2" stroke-opacity="0" transform="translate(53,321)" class="amcharts-graph-bullet"/><circle r="4" cx="0" cy="0" fill="#afdfe4" stroke="#afdfe4" fill-opacity="0" stroke-width="2" stroke-opacity="0" transform="translate(290,322)" class="amcharts-graph-bullet"/><circle r="4" cx="0" cy="0" fill="#afdfe4" stroke="#afdfe4" fill-opacity="0" stroke-width="2" stroke-opacity="0" transform="translate(300,324)" class="amcharts-graph-bullet"/><circle r="4" cx="0" cy="0" fill="#afdfe4" stroke="#afdfe4" fill-opacity="0" stroke-width="2" stroke-opacity="0" transform="translate(321,328)" class="amcharts-graph-bullet"/><circle r="4" cx="0" cy="0" fill="#afdfe4" stroke="#afdfe4" fill-opacity="0" stroke-width="2" stroke-opacity="0" transform="translate(332,324)" class="amcharts-graph-bullet"/><circle r="4" cx="0" cy="0" fill="#afdfe4" stroke="#afdfe4" fill-opacity="0" stroke-width="2" stroke-opacity="0" transform="translate(342,326)" class="amcharts-graph-bullet"/><circle r="4" cx="0" cy="0" fill="#afdfe4" stroke="#afdfe4" fill-opacity="0" stroke-width="2" stroke-opacity="0" transform="translate(363,242)" class="amcharts-graph-bullet"/><circle r="4" cx="0" cy="0" fill="#afdfe4" stroke="#afdfe4" fill-opacity="0" stroke-width="2" stroke-opacity="0" transform="translate(374,124)" class="amcharts-graph-bullet"/><circle r="4" cx="0" cy="0" fill="#afdfe4" stroke="#afdfe4" fill-opacity="0" stroke-width="2" stroke-opacity="0" transform="translate(385,107)" class="amcharts-graph-bullet"/><circle r="4" cx="0" cy="0" fill="#afdfe4" stroke="#afdfe4" fill-opacity="0" stroke-width="2" stroke-opacity="0" transform="translate(395,121)" class="amcharts-graph-bullet"/><circle r="4" cx="0" cy="0" fill="#afdfe4" stroke="#afdfe4" fill-opacity="0" stroke-width="2" stroke-opacity="0" transform="translate(406,132)" class="amcharts-graph-bullet"/><circle r="4" cx="0" cy="0" fill="#afdfe4" stroke="#afdfe4" fill-opacity="0" stroke-width="2" stroke-opacity="0" transform="translate(416,143)" class="amcharts-graph-bullet"/><circle r="4" cx="0" cy="0" fill="#afdfe4" stroke="#afdfe4" fill-opacity="0" stroke-width="2" stroke-opacity="0" transform="translate(427,70)" class="amcharts-graph-bullet"/><circle r="4" cx="0" cy="0" fill="transparent" stroke="transparent" fill-opacity="0" stroke-width="2" stroke-opacity="0" transform="translate(453,70)" class="amcharts-graph-bullet"/></g></g><g><g class="amcharts-category-axis" transform="translate(81,20)"><text y="8" fill="#e7e7e7" font-family="monospace" font-size="15.348225000000001" opacity="1" text-anchor="start" transform="translate(3,635)" class="amcharts-axis-label"><tspan y="8" x="0" style="font-size: 15.3482px;">09:00</tspan></text><text y="8" fill="#e7e7e7" font-family="monospace" font-size="15.348225000000001" opacity="1" text-anchor="start" transform="translate(98,635)" class="amcharts-axis-label"><tspan y="8" x="0" style="font-size: 15.3482px;">12:00</tspan></text><text y="8" fill="#e7e7e7" font-family="monospace" font-size="15.348225000000001" opacity="1" text-anchor="start" transform="translate(192,635)" class="amcharts-axis-label"><tspan y="8" x="0" style="font-size: 15.3482px;">15:00</tspan></text><text y="8" fill="#e7e7e7" font-family="monospace" font-size="15.348225000000001" opacity="1" text-anchor="start" transform="translate(287,635)" class="amcharts-axis-label"><tspan y="8" x="0" style="font-size: 15.3482px;">18:00</tspan></text><text y="8" fill="#e7e7e7" font-family="monospace" font-size="15.348225000000001" opacity="1" text-anchor="start" transform="translate(382,635)" class="amcharts-axis-label"><tspan y="8" x="0" style="font-size: 15.3482px;">21:00</tspan></text></g><g class="amcharts-value-axis value-axis-v1" transform="translate(81,20)" visibility="visible"><text y="8" fill="#e7e7e7" font-family="monospace" font-size="15.348225000000001" opacity="1" text-anchor="end" transform="translate(-12,618)" class="amcharts-axis-label"><tspan y="8" x="0" style="font-size: 15.3482px;">-40,000</tspan></text><text y="8" fill="#e7e7e7" font-family="monospace" font-size="15.348225000000001" opacity="1" text-anchor="end" transform="translate(-12,579)" class="amcharts-axis-label"><tspan y="8" x="0" style="font-size: 15.3482px;">-35,000</tspan></text><text y="8" fill="#e7e7e7" font-family="monospace" font-size="15.348225000000001" opacity="1" text-anchor="end" transform="translate(-12,541)" class="amcharts-axis-label"><tspan y="8" x="0" style="font-size: 15.3482px;">-30,000</tspan></text><text y="8" fill="#e7e7e7" font-family="monospace" font-size="15.348225000000001" opacity="1" text-anchor="end" transform="translate(-12,502)" class="amcharts-axis-label"><tspan y="8" x="0" style="font-size: 15.3482px;">-25,000</tspan></text><text y="8" fill="#e7e7e7" font-family="monospace" font-size="15.348225000000001" opacity="1" text-anchor="end" transform="translate(-12,463)" class="amcharts-axis-label"><tspan y="8" x="0" style="font-size: 15.3482px;">-20,000</tspan></text><text y="8" fill="#e7e7e7" font-family="monospace" font-size="15.348225000000001" opacity="1" text-anchor="end" transform="translate(-12,424)" class="amcharts-axis-label"><tspan y="8" x="0" style="font-size: 15.3482px;">-15,000</tspan></text><text y="8" fill="#e7e7e7" font-family="monospace" font-size="15.348225000000001" opacity="1" text-anchor="end" transform="translate(-12,386)" class="amcharts-axis-label"><tspan y="8" x="0" style="font-size: 15.3482px;">-10,000</tspan></text><text y="8" fill="#e7e7e7" font-family="monospace" font-size="15.348225000000001" opacity="1" text-anchor="end" transform="translate(-12,347)" class="amcharts-axis-label"><tspan y="8" x="0" style="font-size: 15.3482px;"> -5,000</tspan></text><text y="8" fill="#e7e7e7" font-family="monospace" font-size="15.348225000000001" opacity="1" text-anchor="end" transform="translate(-12,308)" class="amcharts-axis-label"><tspan y="8" x="0" style="font-size: 15.3482px;">      0</tspan></text><text y="8" fill="#e7e7e7" font-family="monospace" font-size="15.348225000000001" opacity="1" text-anchor="end" transform="translate(-12,269)" class="amcharts-axis-label"><tspan y="8" x="0" style="font-size: 15.3482px;">  5,000</tspan></text><text y="8" fill="#e7e7e7" font-family="monospace" font-size="15.348225000000001" opacity="1" text-anchor="end" transform="translate(-12,231)" class="amcharts-axis-label"><tspan y="8" x="0" style="font-size: 15.3482px;"> 10,000</tspan></text><text y="8" fill="#e7e7e7" font-family="monospace" font-size="15.348225000000001" opacity="1" text-anchor="end" transform="translate(-12,192)" class="amcharts-axis-label"><tspan y="8" x="0" style="font-size: 15.3482px;"> 15,000</tspan></text><text y="8" fill="#e7e7e7" font-family="monospace" font-size="15.348225000000001" opacity="1" text-anchor="end" transform="translate(-12,153)" class="amcharts-axis-label"><tspan y="8" x="0" style="font-size: 15.3482px;"> 20,000</tspan></text><text y="8" fill="#e7e7e7" font-family="monospace" font-size="15.348225000000001" opacity="1" text-anchor="end" transform="translate(-12,114)" class="amcharts-axis-label"><tspan y="8" x="0" style="font-size: 15.3482px;"> 25,000</tspan></text><text y="8" fill="#e7e7e7" font-family="monospace" font-size="15.348225000000001" opacity="1" text-anchor="end" transform="translate(-12,76)" class="amcharts-axis-label"><tspan y="8" x="0" style="font-size: 15.3482px;"> 30,000</tspan></text><text y="8" fill="#e7e7e7" font-family="monospace" font-size="15.348225000000001" opacity="1" text-anchor="end" transform="translate(-12,37)" class="amcharts-axis-label"><tspan y="8" x="0" style="font-size: 15.3482px;"> 35,000</tspan></text><text y="8" fill="#e7e7e7" font-family="monospace" font-size="15.348225000000001" opacity="1" text-anchor="end" transform="translate(-12,-2)" class="amcharts-axis-label"><tspan y="8" x="0" style="font-size: 15.3482px;"> 40,000</tspan></text></g></g><g><g/></g><g/><g/><g/><clipPath id="AmChartsEl-14"><rect x="81" y="20" width="469" height="620" rx="0" ry="0" stroke-width="0"/></clipPath></svg>