<svg xmlns="http://www.w3.org/2000/svg" version="1.1" style="position: absolute; width: 571px; height: 675px; top: 0.15625px;"><desc>JavaScript chart by amCharts 3.14.1</desc><g><path cs="100,100" d="M0.5,0.5 L570.5,0.5 L570.5,674.5 L0.5,674.5 Z" fill="#000000" stroke="#000000" fill-opacity="0" stroke-width="1" stroke-opacity="0" class="amcharts-bg"/><path cs="100,100" d="M0.5,0.5 L469.5,0.5 L469.5,620.5 L0.5,620.5 L0.5,0.5 Z" fill="#FFFFFF" stroke="#000000" fill-opacity="0" stroke-width="1" stroke-opacity="0" class="amcharts-plot-area" transform="translate(81,20)"/></g><g><g class="amcharts-category-axis" transform="translate(81,20)"><g><path cs="100,100" d="M0.5,0.5 L0.5,5.5" fill="none" stroke-width="1" stroke-opacity="1" stroke="#FFFFFF" transform="translate(0,620)" class="amcharts-axis-tick"/><path cs="100,100" d="M0.5,620.5 L0.5,620.5 L0.5,0.5" fill="none" stroke-width="1" stroke-dasharray="3" stroke-opacity="0.5" stroke="#FFFFFF" class="amcharts-axis-grid"/></g><g><path cs="100,100" d="M95.5,0.5 L95.5,5.5" fill="none" stroke-width="1" stroke-opacity="1" stroke="#FFFFFF" transform="translate(0,620)" class="amcharts-axis-tick"/><path cs="100,100" d="M95.5,620.5 L95.5,620.5 L95.5,0.5" fill="none" stroke-width="1" stroke-dasharray="3" stroke-opacity="0.5" stroke="#FFFFFF" class="amcharts-axis-grid"/></g><g><path cs="100,100" d="M189.5,0.5 L189.5,5.5" fill="none" stroke-width="1" stroke-opacity="1" stroke="#FFFFFF" transform="translate(0,620)" class="amcharts-axis-tick"/><path cs="100,100" d="M189.5,620.5 L189.5,620.5 L189.5,0.5" fill="none" stroke-width="1" stroke-dasharray="3" stroke-opacity="0.5" stroke="#FFFFFF" class="amcharts-axis-grid"/></g><g><path cs="100,100" d="M284.5,0.5 L284.5,5.5" fill="none" stroke-width="1" stroke-opacity="1" stroke="#FFFFFF" transform="translate(0,620)" class="amcharts-axis-tick"/><path cs="100,100" d="M284.5,620.5 L284.5,620.5 L284.5,0.5" fill="none" stroke-width="1" stroke-dasharray="3" stroke-opacity="0.5" stroke="#FFFFFF" class="amcharts-axis-grid"/></g><g><path cs="100,100" d="M379.5,0.5 L379.5,5.5" fill="none" stroke-width="1" stroke-opacity="1" stroke="#FFFFFF" transform="translate(0,620)" class="amcharts-axis-tick"/><path cs="100,100" d="M379.5,620.5 L379.5,620.5 L379.5,0.5" fill="none" stroke-width="1" stroke-dasharray="3" stroke-opacity="0.5" stroke="#FFFFFF" class="amcharts-axis-grid"/></g></g><g class="amcharts-value-axis value-axis-v1" transform="translate(81,20)" visibility="visible"><g><path cs="100,100" d="M0.5,620.5 L5.5,620.5" fill="none" stroke-width="1" stroke-opacity="1" stroke="#FFFFFF" transform="translate(-6,0)" class="amcharts-axis-tick"/><path cs="100,100" d="M0.5,620.5 L0.5,620.5 L469.5,620.5" fill="none" stroke-width="1" stroke-dasharray="3" stroke-opacity="0.5" stroke="#FFFFFF" class="amcharts-axis-grid"/></g><g><path cs="100,100" d="M0.5,581.5 L5.5,581.5" fill="none" stroke-width="1" stroke-opacity="1" stroke="#FFFFFF" transform="translate(-6,0)" class="amcharts-axis-tick"/><path cs="100,100" d="M0.5,581.5 L0.5,581.5 L469.5,581.5" fill="none" stroke-width="1" stroke-dasharray="3" stroke-opacity="0.5" stroke="#FFFFFF" class="amcharts-axis-grid"/></g><g><path cs="100,100" d="M0.5,543.5 L5.5,543.5" fill="none" stroke-width="1" stroke-opacity="1" stroke="#FFFFFF" transform="translate(-6,0)" class="amcharts-axis-tick"/><path cs="100,100" d="M0.5,543.5 L0.5,543.5 L469.5,543.5" fill="none" stroke-width="1" stroke-dasharray="3" stroke-opacity="0.5" stroke="#FFFFFF" class="amcharts-axis-grid"/></g><g><path cs="100,100" d="M0.5,504.5 L5.5,504.5" fill="none" stroke-width="1" stroke-opacity="1" stroke="#FFFFFF" transform="translate(-6,0)" class="amcharts-axis-tick"/><path cs="100,100" d="M0.5,504.5 L0.5,504.5 L469.5,504.5" fill="none" stroke-width="1" stroke-dasharray="3" stroke-opacity="0.5" stroke="#FFFFFF" class="amcharts-axis-grid"/></g><g><path cs="100,100" d="M0.5,465.5 L5.5,465.5" fill="none" stroke-width="1" stroke-opacity="1" stroke="#FFFFFF" transform="translate(-6,0)" class="amcharts-axis-tick"/><path cs="100,100" d="M0.5,465.5 L0.5,465.5 L469.5,465.5" fill="none" stroke-width="1" stroke-dasharray="3" stroke-opacity="0.5" stroke="#FFFFFF" class="amcharts-axis-grid"/></g><g><path cs="100,100" d="M0.5,426.5 L5.5,426.5" fill="none" stroke-width="1" stroke-opacity="1" stroke="#FFFFFF" transform="translate(-6,0)" class="amcharts-axis-tick"/><path cs="100,100" d="M0.5,426.5 L0.5,426.5 L469.5,426.5" fill="none" stroke-width="1" stroke-dasharray="3" stroke-opacity="0.5" stroke="#FFFFFF" class="amcharts-axis-grid"/></g><g><path cs="100,100" d="M0.5,388.5 L5.5,388.5" fill="none" stroke-width="1" stroke-opacity="1" stroke="#FFFFFF" transform="translate(-6,0)" class="amcharts-axis-tick"/><path cs="100,100" d="M0.5,388.5 L0.5,388.5 L469.5,388.5" fill="none" stroke-width="1" stroke-dasharray="3" stroke-opacity="0.5" stroke="#FFFFFF" class="amcharts-axis-grid"/></g><g><path cs="100,100" d="M0.5,349.5 L5.5,349.5" fill="none" stroke-width="1" stroke-opacity="1" stroke="#FFFFFF" transform="translate(-6,0)" class="amcharts-axis-tick"/><path cs="100,100" d="M0.5,349.5 L0.5,349.5 L469.5,349.5" fill="none" stroke-width="1" stroke-dasharray="3" stroke-opacity="0.5" stroke="#FFFFFF" class="amcharts-axis-grid"/></g><g><path cs="100,100" d="M0.5,310.5 L5.5,310.5" fill="none" stroke-width="1" stroke-opacity="1" stroke="#FFFFFF" transform="translate(-6,0)" class="amcharts-axis-tick"/><path cs="100,100" d="M0.5,310.5 L0.5,310.5 L469.5,310.5" fill="none" stroke-width="1" stroke-dasharray="3" stroke-opacity="0.5" stroke="#FFFFFF" class="amcharts-axis-grid"/></g><g><path cs="100,100" d="M0.5,271.5 L5.5,271.5" fill="none" stroke-width="1" stroke-opacity="1" stroke="#FFFFFF" transform="translate(-6,0)" class="amcharts-axis-tick"/><path cs="100,100" d="M0.5,271.5 L0.5,271.5 L469.5,271.5" fill="none" stroke-width="1" stroke-dasharray="3" stroke-opacity="0.5" stroke="#FFFFFF" class="amcharts-axis-grid"/></g><g><path cs="100,100" d="M0.5,233.5 L5.5,233.5" fill="none" stroke-width="1" stroke-opacity="1" stroke="#FFFFFF" transform="translate(-6,0)" class="amcharts-axis-tick"/><path cs="100,100" d="M0.5,233.5 L0.5,233.5 L469.5,233.5" fill="none" stroke-width="1" stroke-dasharray="3" stroke-opacity="0.5" stroke="#FFFFFF" class="amcharts-axis-grid"/></g><g><path cs="100,100" d="M0.5,194.5 L5.5,194.5" fill="none" stroke-width="1" stroke-opacity="1" stroke="#FFFFFF" transform="translate(-6,0)" class="amcharts-axis-tick"/><path cs="100,100" d="M0.5,194.5 L0.5,194.5 L469.5,194.5" fill="none" stroke-width="1" stroke-dasharray="3" stroke-opacity="0.5" stroke="#FFFFFF" class="amcharts-axis-grid"/></g><g><path cs="100,100" d="M0.5,155.5 L5.5,155.5" fill="none" stroke-width="1" stroke-opacity="1" stroke="#FFFFFF" transform="translate(-6,0)" class="amcharts-axis-tick"/><path cs="100,100" d="M0.5,155.5 L0.5,155.5 L469.5,155.5" fill="none" stroke-width="1" stroke-dasharray="3" stroke-opacity="0.5" stroke="#FFFFFF" class="amcharts-axis-grid"/></g><g><path cs="100,100" d="M0.5,116.5 L5.5,116.5" fill="none" stroke-width="1" stroke-opacity="1" stroke="#FFFFFF" transform="translate(-6,0)" class="amcharts-axis-tick"/><path cs="100,100" d="M0.5,116.5 L0.5,116.5 L469.5,116.5" fill="none" stroke-width="1" stroke-dasharray="3" stroke-opacity="0.5" stroke="#FFFFFF" class="amcharts-axis-grid"/></g><g><path cs="100,100" d="M0.5,78.5 L5.5,78.5" fill="none" stroke-width="1" stroke-opacity="1" stroke="#FFFFFF" transform="translate(-6,0)" class="amcharts-axis-tick"/><path cs="100,100" d="M0.5,78.5 L0.5,78.5 L469.5,78.5" fill="none" stroke-width="1" stroke-dasharray="3" stroke-opacity="0.5" stroke="#FFFFFF" class="amcharts-axis-grid"/></g><g><path cs="100,100" d="M0.5,39.5 L5.5,39.5" fill="none" stroke-width="1" stroke-opacity="1" stroke="#FFFFFF" transform="translate(-6,0)" class="amcharts-axis-tick"/><path cs="100,100" d="M0.5,39.5 L0.5,39.5 L469.5,39.5" fill="none" stroke-width="1" stroke-dasharray="3" stroke-opacity="0.5" stroke="#FFFFFF" class="amcharts-axis-grid"/></g><g><path cs="100,100" d="M0.5,0.5 L5.5,0.5" fill="none" stroke-width="1" stroke-opacity="1" stroke="#FFFFFF" transform="translate(-6,0)" class="amcharts-axis-tick"/><path cs="100,100" d="M0.5,0.5 L0.5,0.5 L469.5,0.5" fill="none" stroke-width="1" stroke-dasharray="3" stroke-opacity="0.5" stroke="#FFFFFF" class="amcharts-axis-grid"/></g></g></g><g/><g/><g/><g/><g><g transform="translate(81,20)" class="amcharts-graph-line amcharts-graph-g1"><g/><g/><g clip-path="url(#AmChartsEl-15)"><path cs="100,100" d="M0.5,310.5 L6.5,310.5 L11.5,310.5 L16.5,310.5 L21.5,310.5 L27.5,310.5 L32.5,310.5 L37.5,316.5 L48.5,325.5 L53.5,333.5 L63.5,340.5 L69.5,331.5 L79.5,346.5 L90.5,344.5 L100.5,352.5 L111.5,365.5 L121.5,367.5 L132.5,375.5 L142.5,385.5 L153.5,384.5 L163.5,394.5 L174.5,405.5 L184.5,405.5 L195.5,416.5 L206.5,427.5 L216.5,438.5 L227.5,447.5 L237.5,460.5 L248.5,465.5 L258.5,470.5 L269.5,483.5 L279.5,489.5 L290.5,499.5 L300.5,506.5 L311.5,517.5 L321.5,526.5 L332.5,538.5 L342.5,550.5 L353.5,558.5 L363.5,566.5 L374.5,574.5 L385.5,584.5 L395.5,596.5 L406.5,608.5 L453.5,608.5 M0,0 L0,0" fill="none" stroke-width="3" stroke-opacity="1" stroke="#ff00ff" class="amcharts-graph-stroke"/></g><clipPath id="AmChartsEl-15"><rect x="0" y="0" width="471" height="622" rx="0" ry="0" stroke-width="0"/></clipPath></g></g><g clip-path="url(#AmChartsEl-14)"/><g><path cs="100,100" d="M0.5,310.5 L469.5,310.5 L469.5,310.5" fill="none" stroke-width="1" stroke-dasharray="3" stroke-opacity="1" stroke="#FFFFFF" transform="translate(81,20)" class="amcharts-axis-zero-grid-v1 amcharts-axis-zero-grid"/><g class="amcharts-category-axis"><path cs="100,100" d="M0.5,0.5 L469.5,0.5" fill="none" stroke-width="1" stroke-opacity="1" stroke="#FFFFFF" transform="translate(81,640)" class="amcharts-axis-line"/></g><g class="amcharts-value-axis value-axis-v1"><path cs="100,100" d="M0.5,0.5 L0.5,620.5" fill="none" stroke-width="1" stroke-opacity="1" stroke="#FFFFFF" transform="translate(81,20)" class="amcharts-axis-line" visibility="visible"/></g></g><g><g transform="translate(81,20)" visibility="hidden"><path cs="100,100" d="M0.5,0.5 L0.5,0.5 L0.5,620.5" fill="none" stroke-width="1" stroke-opacity="1" stroke="#FFFFFF" class="amcharts-cursor-line" visibility="hidden"/><path cs="100,100" d="M0.5,0.5 L469.5,0.5 L469.5,0.5" fill="none" stroke-width="1" stroke-opacity="1" stroke="#FFFFFF" class="amcharts-cursor-value-line" visibility="hidden"/></g></g><g/><g><g transform="translate(81,20)" class="amcharts-graph-line amcharts-graph-g1"><circle r="4" cx="0" cy="0" fill="#ff00ff" stroke="#ff00ff" fill-opacity="0" stroke-width="2" stroke-opacity="0" transform="translate(0,310)" class="amcharts-graph-bullet"/><circle r="4" cx="0" cy="0" fill="#ff00ff" stroke="#ff00ff" fill-opacity="0" stroke-width="2" stroke-opacity="0" transform="translate(6,310)" class="amcharts-graph-bullet"/><circle r="4" cx="0" cy="0" fill="#ff00ff" stroke="#ff00ff" fill-opacity="0" stroke-width="2" stroke-opacity="0" transform="translate(11,310)" class="amcharts-graph-bullet"/><circle r="4" cx="0" cy="0" fill="#ff00ff" stroke="#ff00ff" fill-opacity="0" stroke-width="2" stroke-opacity="0" transform="translate(16,310)" class="amcharts-graph-bullet"/><circle r="4" cx="0" cy="0" fill="#ff00ff" stroke="#ff00ff" fill-opacity="0" stroke-width="2" stroke-opacity="0" transform="translate(21,310)" class="amcharts-graph-bullet"/><circle r="4" cx="0" cy="0" fill="#ff00ff" stroke="#ff00ff" fill-opacity="0" stroke-width="2" stroke-opacity="0" transform="translate(27,310)" class="amcharts-graph-bullet"/><circle r="4" cx="0" cy="0" fill="#ff00ff" stroke="#ff00ff" fill-opacity="0" stroke-width="2" stroke-opacity="0" transform="translate(32,310)" class="amcharts-graph-bullet"/><circle r="4" cx="0" cy="0" fill="#ff00ff" stroke="#ff00ff" fill-opacity="0" stroke-width="2" stroke-opacity="0" transform="translate(37,316)" class="amcharts-graph-bullet"/><circle r="4" cx="0" cy="0" fill="#ff00ff" stroke="#ff00ff" fill-opacity="0" stroke-width="2" stroke-opacity="0" transform="translate(48,325)" class="amcharts-graph-bullet"/><circle r="4" cx="0" cy="0" fill="#ff00ff" stroke="#ff00ff" fill-opacity="0" stroke-width="2" stroke-opacity="0" transform="translate(53,333)" class="amcharts-graph-bullet"/><circle r="4" cx="0" cy="0" fill="#ff00ff" stroke="#ff00ff" fill-opacity="0" stroke-width="2" stroke-opacity="0" transform="translate(63,340)" class="amcharts-graph-bullet"/><circle r="4" cx="0" cy="0" fill="#ff00ff" stroke="#ff00ff" fill-opacity="0" stroke-width="2" stroke-opacity="0" transform="translate(69,331)" class="amcharts-graph-bullet"/><circle r="4" cx="0" cy="0" fill="#ff00ff" stroke="#ff00ff" fill-opacity="0" stroke-width="2" stroke-opacity="0" transform="translate(79,346)" class="amcharts-graph-bullet"/><circle r="4" cx="0" cy="0" fill="#ff00ff" stroke="#ff00ff" fill-opacity="0" stroke-width="2" stroke-opacity="0" transform="translate(90,344)" class="amcharts-graph-bullet"/><circle r="4" cx="0" cy="0" fill="#ff00ff" stroke="#ff00ff" fill-opacity="0" stroke-width="2" stroke-opacity="0" transform="translate(100,352)" class="amcharts-graph-bullet"/><circle r="4" cx="0" cy="0" fill="#ff00ff" stroke="#ff00ff" fill-opacity="0" stroke-width="2" stroke-opacity="0" transform="translate(111,365)" class="amcharts-graph-bullet"/><circle r="4" cx="0" cy="0" fill="#ff00ff" stroke="#ff00ff" fill-opacity="0" stroke-width="2" stroke-opacity="0" transform="translate(121,367)" class="amcharts-graph-bullet"/><circle r="4" cx="0" cy="0" fill="#ff00ff" stroke="#ff00ff" fill-opacity="0" stroke-width="2" stroke-opacity="0" transform="translate(132,375)" class="amcharts-graph-bullet"/><circle r="4" cx="0" cy="0" fill="#ff00ff" stroke="#ff00ff" fill-opacity="0" stroke-width="2" stroke-opacity="0" transform="translate(142,385)" class="amcharts-graph-bullet"/><circle r="4" cx="0" cy="0" fill="#ff00ff" stroke="#ff00ff" fill-opacity="0" stroke-width="2" stroke-opacity="0" transform="translate(153,384)" class="amcharts-graph-bullet"/><circle r="4" cx="0" cy="0" fill="#ff00ff" stroke="#ff00ff" fill-opacity="0" stroke-width="2" stroke-opacity="0" transform="translate(163,394)" class="amcharts-graph-bullet"/><circle r="4" cx="0" cy="0" fill="#ff00ff" stroke="#ff00ff" fill-opacity="0" stroke-width="2" stroke-opacity="0" transform="translate(174,405)" class="amcharts-graph-bullet"/><circle r="4" cx="0" cy="0" fill="#ff00ff" stroke="#ff00ff" fill-opacity="0" stroke-width="2" stroke-opacity="0" transform="translate(184,405)" class="amcharts-graph-bullet"/><circle r="4" cx="0" cy="0" fill="#ff00ff" stroke="#ff00ff" fill-opacity="0" stroke-width="2" stroke-opacity="0" transform="translate(195,416)" class="amcharts-graph-bullet"/><circle r="4" cx="0" cy="0" fill="#ff00ff" stroke="#ff00ff" fill-opacity="0" stroke-width="2" stroke-opacity="0" transform="translate(206,427)" class="amcharts-graph-bullet"/><circle r="4" cx="0" cy="0" fill="#ff00ff" stroke="#ff00ff" fill-opacity="0" stroke-width="2" stroke-opacity="0" transform="translate(216,438)" class="amcharts-graph-bullet"/><circle r="4" cx="0" cy="0" fill="#ff00ff" stroke="#ff00ff" fill-opacity="0" stroke-width="2" stroke-opacity="0" transform="translate(227,447)" class="amcharts-graph-bullet"/><circle r="4" cx="0" cy="0" fill="#ff00ff" stroke="#ff00ff" fill-opacity="0" stroke-width="2" stroke-opacity="0" transform="translate(237,460)" class="amcharts-graph-bullet"/><circle r="4" cx="0" cy="0" fill="#ff00ff" stroke="#ff00ff" fill-opacity="0" stroke-width="2" stroke-opacity="0" transform="translate(248,465)" class="amcharts-graph-bullet"/><circle r="4" cx="0" cy="0" fill="#ff00ff" stroke="#ff00ff" fill-opacity="0" stroke-width="2" stroke-opacity="0" transform="translate(258,470)" class="amcharts-graph-bullet"/><circle r="4" cx="0" cy="0" fill="#ff00ff" stroke="#ff00ff" fill-opacity="0" stroke-width="2" stroke-opacity="0" transform="translate(269,483)" class="amcharts-graph-bullet"/><circle r="4" cx="0" cy="0" fill="#ff00ff" stroke="#ff00ff" fill-opacity="0" stroke-width="2" stroke-opacity="0" transform="translate(279,489)" class="amcharts-graph-bullet"/><circle r="4" cx="0" cy="0" fill="#ff00ff" stroke="#ff00ff" fill-opacity="0" stroke-width="2" stroke-opacity="0" transform="translate(290,499)" class="amcharts-graph-bullet"/><circle r="4" cx="0" cy="0" fill="#ff00ff" stroke="#ff00ff" fill-opacity="0" stroke-width="2" stroke-opacity="0" transform="translate(300,506)" class="amcharts-graph-bullet"/><circle r="4" cx="0" cy="0" fill="#ff00ff" stroke="#ff00ff" fill-opacity="0" stroke-width="2" stroke-opacity="0" transform="translate(311,517)" class="amcharts-graph-bullet"/><circle r="4" cx="0" cy="0" fill="#ff00ff" stroke="#ff00ff" fill-opacity="0" stroke-width="2" stroke-opacity="0" transform="translate(321,526)" class="amcharts-graph-bullet"/><circle r="4" cx="0" cy="0" fill="#ff00ff" stroke="#ff00ff" fill-opacity="0" stroke-width="2" stroke-opacity="0" transform="translate(332,538)" class="amcharts-graph-bullet"/><circle r="4" cx="0" cy="0" fill="#ff00ff" stroke="#ff00ff" fill-opacity="0" stroke-width="2" stroke-opacity="0" transform="translate(342,550)" class="amcharts-graph-bullet"/><circle r="4" cx="0" cy="0" fill="#ff00ff" stroke="#ff00ff" fill-opacity="0" stroke-width="2" stroke-opacity="0" transform="translate(353,558)" class="amcharts-graph-bullet"/><circle r="4" cx="0" cy="0" fill="#ff00ff" stroke="#ff00ff" fill-opacity="0" stroke-width="2" stroke-opacity="0" transform="translate(363,566)" class="amcharts-graph-bullet"/><circle r="4" cx="0" cy="0" fill="#ff00ff" stroke="#ff00ff" fill-opacity="0" stroke-width="2" stroke-opacity="0" transform="translate(374,574)" class="amcharts-graph-bullet"/><circle r="4" cx="0" cy="0" fill="#ff00ff" stroke="#ff00ff" fill-opacity="0" stroke-width="2" stroke-opacity="0" transform="translate(385,584)" class="amcharts-graph-bullet"/><circle r="4" cx="0" cy="0" fill="#ff00ff" stroke="#ff00ff" fill-opacity="0" stroke-width="2" stroke-opacity="0" transform="translate(395,596)" class="amcharts-graph-bullet"/><circle r="4" cx="0" cy="0" fill="#ff00ff" stroke="#ff00ff" fill-opacity="0" stroke-width="2" stroke-opacity="0" transform="translate(406,608)" class="amcharts-graph-bullet"/><circle r="4" cx="0" cy="0" fill="transparent" stroke="transparent" fill-opacity="0" stroke-width="2" stroke-opacity="0" transform="translate(453,608)" class="amcharts-graph-bullet"/></g></g><g><g class="amcharts-category-axis" transform="translate(81,20)"><text y="8" fill="#e7e7e7" font-family="monospace" font-size="15.348225000000001" opacity="1" text-anchor="start" transform="translate(3,635)" class="amcharts-axis-label"><tspan y="8" x="0" style="font-size: 15.3482px;">09:00</tspan></text><text y="8" fill="#e7e7e7" font-family="monospace" font-size="15.348225000000001" opacity="1" text-anchor="start" transform="translate(98,635)" class="amcharts-axis-label"><tspan y="8" x="0" style="font-size: 15.3482px;">12:00</tspan></text><text y="8" fill="#e7e7e7" font-family="monospace" font-size="15.348225000000001" opacity="1" text-anchor="start" transform="translate(192,635)" class="amcharts-axis-label"><tspan y="8" x="0" style="font-size: 15.3482px;">15:00</tspan></text><text y="8" fill="#e7e7e7" font-family="monospace" font-size="15.348225000000001" opacity="1" text-anchor="start" transform="translate(287,635)" class="amcharts-axis-label"><tspan y="8" x="0" style="font-size: 15.3482px;">18:00</tspan></text><text y="8" fill="#e7e7e7" font-family="monospace" font-size="15.348225000000001" opacity="1" text-anchor="start" transform="translate(382,635)" class="amcharts-axis-label"><tspan y="8" x="0" style="font-size: 15.3482px;">21:00</tspan></text></g><g class="amcharts-value-axis value-axis-v1" transform="translate(81,20)" visibility="visible"><text y="8" fill="#e7e7e7" font-family="monospace" font-size="15.348225000000001" opacity="1" text-anchor="end" transform="translate(-12,618)" class="amcharts-axis-label"><tspan y="8" x="0" style="font-size: 15.3482px;">-40,000</tspan></text><text y="8" fill="#e7e7e7" font-family="monospace" font-size="15.348225000000001" opacity="1" text-anchor="end" transform="translate(-12,579)" class="amcharts-axis-label"><tspan y="8" x="0" style="font-size: 15.3482px;">-35,000</tspan></text><text y="8" fill="#e7e7e7" font-family="monospace" font-size="15.348225000000001" opacity="1" text-anchor="end" transform="translate(-12,541)" class="amcharts-axis-label"><tspan y="8" x="0" style="font-size: 15.3482px;">-30,000</tspan></text><text y="8" fill="#e7e7e7" font-family="monospace" font-size="15.348225000000001" opacity="1" text-anchor="end" transform="translate(-12,502)" class="amcharts-axis-label"><tspan y="8" x="0" style="font-size: 15.3482px;">-25,000</tspan></text><text y="8" fill="#e7e7e7" font-family="monospace" font-size="15.348225000000001" opacity="1" text-anchor="end" transform="translate(-12,463)" class="amcharts-axis-label"><tspan y="8" x="0" style="font-size: 15.3482px;">-20,000</tspan></text><text y="8" fill="#e7e7e7" font-family="monospace" font-size="15.348225000000001" opacity="1" text-anchor="end" transform="translate(-12,424)" class="amcharts-axis-label"><tspan y="8" x="0" style="font-size: 15.3482px;">-15,000</tspan></text><text y="8" fill="#e7e7e7" font-family="monospace" font-size="15.348225000000001" opacity="1" text-anchor="end" transform="translate(-12,386)" class="amcharts-axis-label"><tspan y="8" x="0" style="font-size: 15.3482px;">-10,000</tspan></text><text y="8" fill="#e7e7e7" font-family="monospace" font-size="15.348225000000001" opacity="1" text-anchor="end" transform="translate(-12,347)" class="amcharts-axis-label"><tspan y="8" x="0" style="font-size: 15.3482px;"> -5,000</tspan></text><text y="8" fill="#e7e7e7" font-family="monospace" font-size="15.348225000000001" opacity="1" text-anchor="end" transform="translate(-12,308)" class="amcharts-axis-label"><tspan y="8" x="0" style="font-size: 15.3482px;">      0</tspan></text><text y="8" fill="#e7e7e7" font-family="monospace" font-size="15.348225000000001" opacity="1" text-anchor="end" transform="translate(-12,269)" class="amcharts-axis-label"><tspan y="8" x="0" style="font-size: 15.3482px;">  5,000</tspan></text><text y="8" fill="#e7e7e7" font-family="monospace" font-size="15.348225000000001" opacity="1" text-anchor="end" transform="translate(-12,231)" class="amcharts-axis-label"><tspan y="8" x="0" style="font-size: 15.3482px;"> 10,000</tspan></text><text y="8" fill="#e7e7e7" font-family="monospace" font-size="15.348225000000001" opacity="1" text-anchor="end" transform="translate(-12,192)" class="amcharts-axis-label"><tspan y="8" x="0" style="font-size: 15.3482px;"> 15,000</tspan></text><text y="8" fill="#e7e7e7" font-family="monospace" font-size="15.348225000000001" opacity="1" text-anchor="end" transform="translate(-12,153)" class="amcharts-axis-label"><tspan y="8" x="0" style="font-size: 15.3482px;"> 20,000</tspan></text><text y="8" fill="#e7e7e7" font-family="monospace" font-size="15.348225000000001" opacity="1" text-anchor="end" transform="translate(-12,114)" class="amcharts-axis-label"><tspan y="8" x="0" style="font-size: 15.3482px;"> 25,000</tspan></text><text y="8" fill="#e7e7e7" font-family="monospace" font-size="15.348225000000001" opacity="1" text-anchor="end" transform="translate(-12,76)" class="amcharts-axis-label"><tspan y="8" x="0" style="font-size: 15.3482px;"> 30,000</tspan></text><text y="8" fill="#e7e7e7" font-family="monospace" font-size="15.348225000000001" opacity="1" text-anchor="end" transform="translate(-12,37)" class="amcharts-axis-label"><tspan y="8" x="0" style="font-size: 15.3482px;"> 35,000</tspan></text><text y="8" fill="#e7e7e7" font-family="monospace" font-size="15.348225000000001" opacity="1" text-anchor="end" transform="translate(-12,-2)" class="amcharts-axis-label"><tspan y="8" x="0" style="font-size: 15.3482px;"> 40,000</tspan></text></g></g><g><g/></g><g/><g/><g/><clipPath id="AmChartsEl-14"><rect x="81" y="20" width="469" height="620" rx="0" ry="0" stroke-width="0"/></clipPath></svg>